<svg xmlns="http://www.w3.org/2000/svg" id="Layer_1" data-name="Layer 1" version="1.1" viewBox="0 0 1662 1072">
  <defs>
    <style>
      .cls-1 {
        fill: none;
        stroke: #59b792;
        stroke-linecap: round;
        stroke-linejoin: round;
        stroke-opacity: .5;
        stroke-width: 2px;
      }

      .cls-2 {
        fill: #59b792;
        fill-opacity: .5;
        stroke-width: 0px;
      }
    </style>
  </defs>
  <path class="cls-2" d="M91.2,856.1c-7.8-4.6-16.5-7.9-24.7-11.7-7.4-3.4-14.8-7.2-22.8-8.9-.3,0-.5,0-.7.1-6.9-1.9-15,5.1-19.7,9.7-6.3,6.3-17.7,19.1-12.7,28.9,0,.2,0,.3.1.5,0,0,.1.1.2.2,0,.1,0,.2.2.3,10.9,12.8,22.4,25.2,33.7,37.7,3.8,4.2,7.7,9.7,13.9,9.6,5.6,0,11-3.4,15.5-6.4,10.9-7.3,19.4-18,24.1-30.2,2-5.2,4.1-11.4,3.2-17.1-1-5.8-5.4-9.8-10.2-12.6ZM12.4,873.6c-4.2-8.3,5.2-19.6,10.5-25.2,5-5.3,14.6-15.5,22.3-9.4,6.5,5.1-1.9,16.5-6.9,22.2-.3-.1-.6-.2-.9-.4-.3,0-.4.3-.2.5.2.1.4.3.6.4-.4.5-.8.9-1.1,1.2-4.4,4.7-17.5,16.8-24.4,11.4.2-.2.2-.5,0-.9ZM96.7,863.7c.1,0,.2-.1.4-.2.7.9,1.2,1.9,1.6,2.9,1.7,4.1.8,8.5-.3,12.7-2.1,7.8-5.8,15.1-10.7,21.5-4.9,6.4-11,11.9-18,15.9-3.1,1.8-6.7,3.8-10.4,4-.9,0-1.7,0-2.5-.2,0,0,0,0,.1,0,1.3-1.2,2.5-2.5,3.6-3.9.5-.6-.3-1.4-.8-.8-1.2,1.3-2.4,2.7-3.4,4.2-.1.2,0,.4,0,.5-4-1.2-6.8-4.9-9.6-8-10.5-11.6-21-23.4-31.8-34.8,7.4,1.7,17.8-7.5,22-11.7.8-.8,1.6-1.7,2.4-2.6.4.3.8.7,1.2,1.1.3.3,1-.1.7-.5-.4-.5-.8-.9-1.2-1.3,3.5-4,6.4-8.6,8.4-13.5,1.4-3.4,2.1-6.9-.6-10,0-.1-.2-.2-.3-.3,6.8,2.1,13.2,5.4,19.6,8.3,7.2,3.3,14.6,6.3,21.5,10.1,2.9,1.6,5.7,3.4,7.8,5.9,0,0-.1,0-.2,0-.6.2-.2,1.1.3.8Z"/>
  <path class="cls-2" d="M55.1,912.2c-.6,2-.9,4.1-.9,6.2,0,.6.9.6,1,0,.2-2,.6-3.9,1.1-5.9.2-.8-1-1.1-1.2-.3Z"/>
  <path class="cls-2" d="M59.5,902c-.7,1.8-1.5,3.4-2.3,5.1-.3.6.6,1.1.9.5,1.1-1.7,2-3.5,2.7-5.3.3-.8-1-1.1-1.3-.3Z"/>
  <path class="cls-2" d="M66.5,891.3c-1.4,1.7-2.7,3.7-3.9,5.5-.3.5.4,1.1.8.6,1.4-1.7,2.9-3.5,4.1-5.4.4-.6-.5-1.3-1-.8Z"/>
  <path class="cls-2" d="M74.6,879c-1.3,1.3-2.6,2.7-3.8,4.1-.4.5.2,1.2.7.7,1.4-1.2,2.8-2.5,4.1-3.8.7-.7-.4-1.7-1-1Z"/>
  <path class="cls-2" d="M84.5,870.1c-2.3,1.2-4.2,3.2-5.8,5.1-.4.5.3,1.3.8.8,1.7-1.9,3.7-3.2,5.7-4.7.7-.5.1-1.7-.7-1.2Z"/>
  <path class="cls-2" d="M94.8,863.4c-2.3.7-4.3,2.2-6,3.9-.5.5.3,1.3.8.8,1.7-1.5,3.5-2.4,5.6-3.1,1-.3.6-1.9-.4-1.6Z"/>
  <path class="cls-2" d="M16,869.5c-1.1,1.3-2.1,2.7-3,4.2-.3.5.4,1.1.8.6,1.1-1.3,2.2-2.7,3.1-4,.4-.6-.5-1.3-1-.8Z"/>
  <path class="cls-2" d="M23.2,860.5c-1.1,1.3-2,2.8-2.9,4.2-.3.4.4.9.7.5,1.1-1.3,2.2-2.6,3.2-4,.4-.6-.5-1.3-.9-.7Z"/>
  <path class="cls-2" d="M31.2,850c-.6.6-1.2,1.3-1.8,2-1.7-.5-3,1.1-2.7,2.7,0,.4.2.8.5,1.1.3.4.8.6,1.3.5.2,0,.3,0,.5,0,.7,0,1.3-.3,1.7-.8.8-1,.4-2.2-.4-2.9.6-.6,1.1-1.2,1.6-1.9.3-.5-.4-1-.8-.6Z"/>
  <path class="cls-2" d="M39.9,837.8c-2.1,1.9-3.8,4.2-5.1,6.7-.3.6.6,1.1.9.5,1.5-2.3,3.3-4.3,5.2-6.2.7-.7-.4-1.7-1.1-1.1Z"/>
  <path class="cls-2" d="M31.8,855.5c-.3-.2-.8.2-.6.6.7,1,1.5,2,2.5,2.8.6.5,1.4-.2.9-.9-.7-.9-1.8-1.8-2.8-2.5Z"/>
  <path class="cls-2" d="M43.7,865.9c-.5-.2-1.1.4-.6.8,1,.9,2,1.7,2.9,2.6.7.6,1.5-.3.9-.9-.8-1-2-2-3.3-2.5Z"/>
  <path class="cls-2" d="M49.8,871.6c-.6-.1-.9.6-.4,1,1.2.8,2.3,1.5,3.3,2.5.4.4,1.2-.1.9-.7-.9-1.3-2.3-2.4-3.8-2.8Z"/>
  <path class="cls-2" d="M55.6,876.3c-.3-.2-.6.2-.3.4.8.7,1.5,1.4,2.3,2,.5.3,1-.4.6-.8-.8-.6-1.7-1.1-2.6-1.7Z"/>
  <path class="cls-2" d="M60.4,880.1c-.3-.1-.6.4-.3.6.9.7,1.8,1.6,2.7,2.4.4.3,1.1,0,.8-.6-.8-1.2-1.8-1.9-3.1-2.4Z"/>
  <path class="cls-2" d="M65.8,884.5c-.4-.3-.8.3-.5.7.9,1,2,1.9,3.1,2.6.5.3,1-.4.6-.8-.9-1-2-1.8-3.2-2.5Z"/>
  <path class="cls-2" d="M76.7,894s0,0,0,0h0s0,0,0,0Z"/>
  <path class="cls-2" d="M77.7,892.5c-.8-.5-1.8-.4-2.4.2.1-.2.1-.3,0-.6-.8-1.2-2.3-2.1-3.7-2.4-.5,0-.8.5-.3.8,1.1.7,2.1,1.5,3.1,2.3.3.2.7.1.9,0-.3.3-.5.7-.5,1.2,0,.4.2.8.5,1.1,0,.3,0,.6.2.9.4.7,1.5.4,2.1,0,1.3-.8,1.5-2.7.1-3.6Z"/>
  <path class="cls-2" d="M76.7,894s0,0,0,0c0,0,0,0,0,0Z"/>
  <path class="cls-2" d="M65.6,907.7c-1,1.4-1.9,3-2.9,4.5-.4.6.6,1.1,1,.5,1-1.5,2.1-2.9,3-4.4.4-.7-.6-1.3-1.1-.6Z"/>
  <path class="cls-2" d="M70.2,901.2c-.8,1.3-1.6,2.5-2.6,3.6-.5.6.3,1.3.8.8,1.2-1,2.2-2.4,2.9-3.8.3-.7-.7-1.3-1.1-.6Z"/>
  <path class="cls-2" d="M80.6,885.7c-.8,1.4-1.6,2.7-2.3,4.2-.4.7.6,1.3,1.1.6.9-1.3,1.7-2.7,2.5-4.1.4-.8-.8-1.5-1.2-.7Z"/>
  <path class="cls-2" d="M89.3,875.1c-1.4,1.5-2.7,3.2-4,4.8-.4.5.3,1.2.7.7,1.4-1.5,2.9-3,4.3-4.5.5-.6-.3-1.6-.9-.9Z"/>
  <path class="cls-2" d="M96,866.5c-1.5,1.4-2.7,3-3.9,4.7-.3.5.4,1,.8.6,1.2-1.5,2.7-2.9,4-4.3.6-.6-.3-1.5-.9-.9Z"/>
  <path class="cls-1" d="M143.9,704.1c35,9.4,70,18.8,105,28.1"/>
  <path class="cls-1" d="M247.2,728.6l7.7,5.5-8.7.8"/>
  <path class="cls-1" d="M206.9,721.1l30.6-114.2,5.9,1.6-30.4,113.6"/>
  <path class="cls-1" d="M222.1,725.1l9.3-34.5,5.9,1.6-9.1,34"/>
  <path class="cls-1" d="M237.9,726.2l-1.5,5.5"/>
  <path class="cls-2" d="M63.7,531.4c-2.2,1-4.3,2.1-6.4,3.2-1.3.7-3.4,2.4-4.8,2.5-3.8.2-6-6.6-7.5-9.2-.2-.3-.3-.6-.5-.8.1,0,.2,0,.3,0,3-1.4,6-3.1,8.8-4.9.9-.6.1-2-.9-1.5-2.9,1.5-6,3.2-8.7,5.1-.1,0-.2.2-.2.2-.7-1.2-1.3-2.3-2-3.5-.7-1.2-2.6-3.3-2.7-4.6-.2-3.1,7.6-5.7,9.9-6.8,1-.5.1-2-.9-1.5-3.2,1.5-6.4,3.1-9.4,4.9-.7.4-2,.8-2.2,1.7-.4,1.2,1.5,3.4,2,4.2,1.6,2.8,3.2,5.7,4.9,8.5,1.6,2.8,3.2,5.7,4.9,8.5.5.8,1,2.3,2.1,2.5,1.3.3,3.6-1.4,4.6-2,3.1-1.7,6.3-3.4,9.4-5.2.8-.4.1-1.5-.7-1.2Z"/>
  <path class="cls-2" d="M70.3,513.3c-2.3,2.3-4.8,4.2-7.6,5.9-.8.5-.1,1.6.7,1.2,3-1.5,5.7-3.6,8.1-5.9.8-.8-.5-2.1-1.3-1.2Z"/>
  <path class="cls-2" d="M68.3,511.1c-3.1,2-6.1,4-9.2,6-.7.4,0,1.5.6,1.1,3.1-1.9,6.3-3.8,9.4-5.7.9-.6,0-2-.8-1.4Z"/>
  <path class="cls-2" d="M88.3,498.5c-2.1.7-2.5,3.6-2.4,6.2-1.5-1.6-3.5-2.9-5.5-2.2-2.2.8-1.6,3.4-.7,5.7-1.3-1.2-2.5-2.4-3.6-3.7-.5-.6-1.6.2-1.1.8,1.9,2.4,4,4.6,6.4,6.5.6.5,1.8,0,1.5-.8-.4-1.1-.8-2.2-1.2-3.3-.5-1.3-1.2-1.9.2-2.7,1.9-1,3.5,1.7,4.6,3.1.6.8,1.7,0,1.5-.9-.2-1.3-.7-4.4.2-5.5,2-2.6,3.5,2.1,3.9,3.7.3,1.1,1.8.6,1.6-.4-.3-2.2-2.2-7.5-5.3-6.5Z"/>
  <path class="cls-2" d="M102.6,498.3c-1,1.5-3.8,3.5-5.4,1.6-.8-.9-.5-2.2,0-3.2.2-.4,1.8-3,2.4-2.1.5.7,1.5.1,1.1-.6-.9-1.8-2.8-.8-3.8.3-1.3,1.5-2.3,3.4-1.8,5.3,1.2,4.5,7.4,2.8,9-.4.5-1-.9-1.8-1.5-.9Z"/>
  <path class="cls-2" d="M107.8,486.2c-1,1.1-2.1,2.1-3.4,2.7.2-2.2-.4-4.7-2.3-6-2.6-1.7-4.4,2.4-4.4,4.4,0,.8,1.2.8,1.2,0,0-.8.4-2.3,1.3-2.8,1.3-.6,1.7.4,2.1,1.3.6,1.4.5,2.9,0,4.3-.2.6.5,1.3,1.1,1.1,2.3-.8,4.1-2,5.7-3.9.8-.9-.5-2.2-1.3-1.3Z"/>
  <path class="cls-2" d="M127.6,212.3c-15.6-4.2-32.7,1.7-42.1,14.9-9.6,13.4-9.9,31.3-1,45.1,10,15.5,30.5,22.4,47.7,15.5.2,0,.3-.2.3-.3,15.2-6.4,24.5-22.4,23.9-38.7-.5-16.8-12.5-32.2-28.8-36.5ZM154.1,242.8c3.6,17.9-6.4,37.4-23.7,43.7-.4.2-.6.5-.5.9-14.2,3.4-29.6.2-39.8-10.8-6.9-7.4-10.5-17.2-10.3-27,12.2-3.1,24.4-6.6,36.5-10.3.7,5.6,1.4,11.3,2.5,16.9-.4.2-.7.4-.9.8-.2,0-.4.1-.5.4-.3,1.4.7,2.8,2.2,2.6,1.4-.2,2.1-1.7,1.5-2.9,7.9-9.1,15.8-18,24.3-26.6.7-.2,1.5-.4,2.2-.7.5-.1.6-.5.5-.9,2.8,4.1,4.9,8.8,5.9,13.8ZM118.7,246.4c2.8-1.1,5.8-2.1,8.1.6.1.1.2.2.4.2-2.4,2.9-4.8,6-6.9,9.1-.2,0-.3-.1-.5-.2-.3-3.2-.6-6.5-1.1-9.7ZM118.5,245.5c-.3-2.2-.6-4.3-.9-6.5,0,0,0,0,0,0,8.1-2.4,16.2-4.9,24.3-7.3-4.9,4.6-9.6,9.5-14,14.7-1.9-3.5-6.4-2.4-9.3-.8ZM147,228.3c-.5.1-1,.3-1.5.4-.2,0-.5,0-.7.1,0,0,0,0-.1,0-21.7,6.3-43.6,12.2-65,19.4.3-5,1.5-10,3.8-14.7,7-14.1,21.9-22.3,37.5-20.8,10.8,1,20.5,7,26.7,15.6-.2-.1-.4-.2-.7-.1Z"/>
  <path class="cls-2" d="M74.4,247.8c-2-.7-4.4-.7-6.5-.7-.7,0-1.2.8-.5,1.3,1.1.8,2.1,1.6,3.2,2.4,0,.2,0,.3,0,.5,0,.5.7.5.9,0,.5.3,1,.6,1.4.9.4.2.8-.4.5-.7-.5-.6-1.1-1.1-1.7-1.6.1-.4.3-.7.5-1.1.6,0,1.3.1,1.9.2.7,0,1.2-1.1.4-1.3ZM70.8,249.4c-.3-.2-.5-.4-.8-.6.3,0,.7,0,1,.1,0,.2-.2.3-.2.5Z"/>
  <path class="cls-2" d="M122.7,229.6c-.8,1.1-1.7,3-3.3,2.5-1.6-.5-.2-3.3.6-3,.4.2.8-.4.4-.6-1.9-1.1-3.5,2.6-2.6,4,.6.9,1.9,1.3,3,1,1.5-.4,2.5-1.8,3.2-3.1.4-.7-.8-1.4-1.3-.7Z"/>
  <path class="cls-2" d="M153.3,223c-.5,0-.8.4-1.2.7,0-.8-.2-1.7-.6-2.3-.6-.9-1.7-1-2.5-.3-2.2,1.9.9,5.7,2.3,7,.4.4,1,0,1.1-.4.2.4.7.7,1.2.3,1.3-1,2.6-2.6,1.4-4.2-.4-.6-1.1-.9-1.8-.7ZM150.1,222.5c.3-.3.3.4.4.6,0,.5,0,.9,0,1.4-.2-.4-.4-.7-.5-1.1-.1-.4-.3-.7,0-.9ZM153.7,225.7c-.2.4-.7.7-1,1-.2.1-.2.3-.3.5,0,0,0,0,0,0-.3-.3-.6-.6-.8-1,0,0,0,0,.1,0,.6-.2.9-.7,1.3-1,.5-.3,1.3-.3.7.6Z"/>
  <path class="cls-2" d="M1060.1,883.9c0,0-.1.1-.2.2h0c0-.8-.8-1.3-1.5-.9-1.6.9-3.2,1.8-4.8,2.7-1.1.6-.1,2.4,1,1.7,1.1-.6,2.3-1.3,3.4-1.9,0,.1,0,.3,0,.4-12.7,13.2-25.6,26.1-38.6,38.9-4.3-4.2-8.7-8.3-13.1-12.4.2-1.8.2-3.6.3-5.5.1-24.9-11.3-47.7-23.1-68.8-.6-1-2.2-.1-1.6.9,11.4,20.5,22.5,42.4,22.9,66.3,0,1.8,0,3.6-.1,5.5-2.6-2.4-5.1-4.9-7.6-7.4-11.9-12.2-23.9-23.5-37.9-33.1.8-1.3,6.1-.7,7.6-.5,1.3.1,1.3-1.8,0-2-3.3-.3-6.3-.1-9.5.7-.5.1-.9.7-.7,1.2.9,2.8,1.9,5.6,2.9,8.4.4,1.2,2.3.7,1.9-.5-.4-1.5-.9-3-1.3-4.4,13.5,9.4,24.9,20.5,36.5,32.2,2.6,2.6,5.3,5.1,8.1,7.5-.8,8.8-3.2,17.3-7.4,25.2-5.9,11.2-14.5,20.5-22.5,30.3-.1.1-.1.3,0,.5-.4.4-.8.8-1.2,1.1-.5.5.3,1.3.8.8,15.8-13.9,31.1-28.5,46.1-43.3,3.8,3.9,7.3,7.9,10.8,12,.3.4,1.1-.1.8-.6-3.3-4.4-6.9-8.5-10.6-12.3,12.4-12.3,24.6-24.9,36.7-37.5-.2,1.1-.4,2.3-.8,3.4l-.8,2.1c-.4,1.2,1.5,1.7,1.9.5.3-.8.6-1.5.8-2.3,1-2.7,1.9-5.5,2.8-8.2.3-.9-1-1.6-1.7-1ZM983.6,960.1c11.4-13.2,20.4-28,22.5-45.5,2.4,2.1,4.8,4.2,7.1,6.3,1.8,1.7,3.5,3.4,5.3,5.1-11.6,11.4-23.3,22.8-34.9,34.1Z"/>
  <path class="cls-2" d="M989.4,843.8c-.5-.4-1.2.2-.8.8.8,1,1.8,2,2.8,3,.6.6,1.5-.3,1-1-.9-1-1.9-1.9-3-2.8Z"/>
  <path class="cls-2" d="M995.8,850.8c-.4-.3-.8.2-.5.5,1.1,1.3,2.2,2.6,3.4,3.7.6.5,1.3-.3.8-.8-1.1-1.3-2.4-2.3-3.7-3.4Z"/>
  <path class="cls-2" d="M1003.5,858.4c-.5-.4-1.1.2-.7.7.9.9,1.5,1.8,2.2,2.8.4.6,1.4,0,1-.6-.6-1.2-1.6-2.1-2.6-2.9Z"/>
  <path class="cls-2" d="M1010.2,865.5c-.5-.5-1.1.2-.7.7,1.4,1.8,2.9,3.3,4.8,4.6.6.4,1.3-.5.7-1-1.7-1.4-3.3-2.7-4.8-4.3Z"/>
  <path class="cls-2" d="M1017.9,873.1c1.1,1.4,2.2,2.9,3.4,4.2.5.5,1.2-.2.8-.8-1.2-1.4-2.4-2.7-3.7-4-.3-.4-.8.2-.5.5Z"/>
  <path class="cls-2" d="M1025.9,880.6c-.3-.2-.7.3-.4.6,1.1,1.1,2.1,2.2,3,3.5.4.5,1.2,0,.9-.5-.8-1.4-2-2.7-3.4-3.6Z"/>
  <path class="cls-2" d="M1032.7,887.7c-.5-.3-.9.5-.4.8,1,.6,1.9,1.5,2.7,2.4.4.5,1.2-.2.9-.7-.8-1.1-1.9-1.9-3.1-2.5Z"/>
  <path class="cls-2" d="M1039.6,892.9c-.4-.4-.9.2-.6.6.8,1,1.5,2,2.4,2.8.6.6,1.4-.3.9-.9-.8-1-1.8-1.7-2.7-2.6Z"/>
  <path class="cls-2" d="M1045.6,897.4c-.5,0-1-.1-1.5-.4-.3-.2-.7.1-.4.4.5.5,1.1.8,1.8.9.7,0,.8-.9.1-.9Z"/>
  <path class="cls-2" d="M312.2,956.7c-3.3.6-6.3,5.4-8.6,7.6-3,2.9-6,5.9-9,8.8-16.7-16.1-39.4-27-62.1-18.6-9.4,3.5-17.9,9.4-24.5,16.9-1.4-1.5-2.7-2.9-4.1-4.4-1-1.1-2.8.5-1.7,1.6,1.4,1.5,2.8,3.1,4.3,4.6-10.1,12.6-14.9,29-9.4,45.4,3.5,10.6,11.2,19.4,20.8,25-1.3,1.2-2.6,2.4-3.8,3.6-.7.7.3,1.7,1.1,1.1,1.5-1.2,3.1-2.4,4.6-3.7,1,.5,2,1,3,1.5,13.1,5.9,24.6,3.5,35.7-5.3,2-1.6,3.9-3.5,5.7-5.5,1.1,1,2.1,2.1,3.2,3.1.8.7,1.8-.3,1.2-1.1-1-1.2-2-2.5-3-3.7,5.5-7.2,8.2-16.3,4.6-25.3-.8-2-1.9-3.8-3.3-5.3,7.8-7.2,15.5-14.5,23.1-21.9,1.6-1.5,3.2-3.1,4.8-4.7,4,4.1,7.6,8.4,10.6,12.6.9,1.2,2.6-.4,1.7-1.6-3.1-4.4-6.7-8.7-10.6-12.7,1.8-1.8,3.7-3.6,5.5-5.4,1.7-1.7,3.4-3.4,5.1-5,1.1-1.1,2.3-2.2,3.4-3.4.8-.3,1.3-.7,1.5-1.2.4.2.9.2,1.3-.2.1-.1.2-.2.4-.3.4-.3.5-1,.2-1.4-.1-.2-.2-.4-.3-.5-.3-.5-.8-.7-1.3-.6ZM198.4,994.5c1.6-7.2,5-13.9,9.6-19.6,8.9,9.6,17.8,19.2,26.7,28.8.2.2.4.5.6.7-4.8,5.6-6.3,13.4.6,19.3.8.7,1.7,1.2,2.6,1.6-6.3,5.6-12.5,11.2-18.7,16.8-16.6-9.4-25.6-28.4-21.3-47.5ZM249.2,1015.7c-3.6-3.8-7.2-7.6-10.8-11.4,0,0,.2-.2.3-.3,6.8-6,17.8-6.7,24.6-1.1-4.7,4.3-9.4,8.5-14.1,12.8ZM250.5,1021.2c-1,2.2-3.8,3-6.6,2.8,1.7-1.5,3.3-3,5-4.5.5.6,1.1,1.2,1.6,1.8ZM247.1,1017.5c-2.2,2-4.4,3.9-6.6,5.9-1.7-.5-3.1-1.3-4.1-2.3-4.4-4.6-3.3-10.6.3-15,3.5,3.8,6.9,7.6,10.4,11.5ZM257.6,1038.4c-9.7,8.1-20.3,11.1-32.4,6.2-1.2-.5-2.3-1-3.5-1.6,6.7-5.5,13.3-11.2,19.8-17,4,.6,8.5-.4,10.4-3.4,3.4,3.7,6.9,7.4,10.5,11-1.5,1.7-3.1,3.3-4.8,4.8ZM267.2,1007.8c4.2,8.2,1.7,17-3.3,24-3.5-4.2-7.2-8.2-11-12.2,0-.9,0-1.8-.4-2.8,0-.2-.1-.3-.2-.4,4.3-3.9,8.5-7.8,12.7-11.8.8,1,1.6,2,2.2,3.2ZM291.6,976.1c-8.3,8.1-16.7,16-25.2,23.9-.5.5-1,.9-1.5,1.3-5.4-4.7-13.4-5.9-20.6-3.3-2.7,1-5.3,2.6-7.5,4.6-.2-.2-.4-.4-.6-.6-8.9-9.7-17.9-19.4-26.9-29,8.7-10,21.2-17.1,34.2-18.9,18.1-2.6,35.9,7.7,49.2,20.7-.4.4-.9.8-1.3,1.3Z"/>
  <path class="cls-2" d="M218.4,973.7c-2,0-4,0-6,.1-.8,0-.9,1.3,0,1.3,2,0,4,0,6,0,.9,0,.9-1.3,0-1.4Z"/>
  <path class="cls-2" d="M233.5,973.3c-2.2-.2-4.5-.1-6.7.1-.8,0-.6,1.4.1,1.4,2.2.2,4.5.1,6.7-.2.8-.1.6-1.3-.1-1.4Z"/>
  <path class="cls-2" d="M246.1,972.6c-1.9-.3-3.8-.2-5.8.2-.9.2-.6,1.5.3,1.4,1.7-.2,3.5-.2,5.2-.2.8,0,1-1.3.2-1.4Z"/>
  <path class="cls-2" d="M261.8,972.7c-2.7-.5-5.4-.3-8,.3-.8.2-.5,1.3.3,1.2,2.5-.3,5-.2,7.5,0,.9,0,1.1-1.4.2-1.5Z"/>
  <path class="cls-2" d="M275.7,972.7c-2.7-.3-5.5-.1-8.1.3-.8.1-.7,1.5.1,1.5,2.6-.2,5.3-.2,8-.2,1,0,1-1.4,0-1.5Z"/>
  <path class="cls-2" d="M289.7,972.2c-2.6.2-5.2.7-7.8.9-.7,0-.6,1.3.1,1.3,2.6-.2,5.1-.2,7.7-.4,1.2,0,1.2-1.9,0-1.8Z"/>
  <path class="cls-2" d="M216.7,1031.6c0,2.3.4,4.8,1.1,7,.3.8,1.4.6,1.3-.3-.4-2.2-.7-4.4-.9-6.7,0-.9-1.5-1-1.5,0Z"/>
  <path class="cls-2" d="M212.7,1016.6c.9,3.3,1.7,6.6,2.4,10,0,.4.8.4.8,0,0-3.5-.7-7.1-2-10.3-.3-.7-1.4-.2-1.2.4Z"/>
  <path class="cls-2" d="M210.8,1000.5c-.4,2.8.2,5.4,1.6,7.8.4.6,1.3.1,1-.5-1-2.3-1.3-4.8-1.1-7.2,0-1-1.3-1-1.5,0Z"/>
  <path class="cls-2" d="M209.1,989.7c.1,1.6.9,3.2,2.3,4.1.5.3.9-.3.6-.8-.8-1.1-1.4-2.1-1.7-3.4-.1-.7-1.3-.6-1.2.1Z"/>
  <path class="cls-2" d="M207.6,978.1c-1.4,1.5-.9,4.2,1,5,.6.3,1.2-.5.6-.9-1.1-.7-1.1-2.1-.4-3.1.5-.7-.6-1.5-1.1-.9Z"/>
  <path class="cls-2" d="M228.9,1040.8c-1.5.1-3,.4-4.4.8-.7.2-.4,1.1.2,1,1.4-.1,2.9-.3,4.3-.7.6-.2.6-1.2-.1-1.2Z"/>
  <path class="cls-2" d="M239,1038.7c-1.6.5-3.2,1-4.8,1.5-.6.2-.4,1.2.2,1,1.6-.4,3.3-.8,4.9-1.2.8-.2.6-1.6-.3-1.3Z"/>
  <path class="cls-2" d="M249.4,1035.8c-1.5.5-3.1,1-4.6,1.6-.8.3-.5,1.5.3,1.3,1.5-.4,3.1-.9,4.6-1.4.9-.3.6-1.7-.3-1.4Z"/>
  <path class="cls-2" d="M259,1033.8c-.7,0-1.3.4-2,.6-.7.2-1.3.4-2,.6-.7.2-.4,1.2.2,1.1.7-.2,1.4-.4,2.1-.5.7-.2,1.4-.2,2-.5.7-.3.2-1.3-.4-1.2Z"/>
  <path class="cls-2" d="M263,1022.4c0,1.9.3,3.9.6,5.8.1.8,1.3.6,1.3-.1,0-1.9-.1-3.9-.3-5.9,0-.9-1.6-.7-1.5.2Z"/>
  <path class="cls-2" d="M262.4,1012.7c0,.7,0,1.4,0,2.1,0,.7,0,1.4-.2,2.1,0,.5.7.6.8.1.4-1.4.8-3.1.5-4.5-.1-.7-1.2-.6-1.3.1Z"/>
  <path class="cls-2" d="M262.1,1007.9c0,.8,0,1.5,0,2.3,0,.8,1.2.8,1.2,0,0-.8.1-1.5.1-2.3,0-.9-1.4-1-1.4,0Z"/>
  <path class="cls-2" d="M1426.9,968.9c-2-1.4-4.2-2.7-6.3-4,.3-.7-.6-1.2-1-.6,0,0-.1,0-.2-.1-1-.6-1.9.9-.9,1.6,0,0,0,0,.1,0-1.5,2.4-3,4.8-4.6,7.1-1.3,1.9-2.7,3.7-4.1,5.4-.5.5-1.3,1.2-1.6,1.9-1.3,3.1,5.3,5.2,7.1,6.1,1.2.6,2.2-1.1,1.1-1.9-1.5-1-3.7-1.7-4.9-2.9-1.2-1.2-.9-.4-.2-2,.5-1.1,1.6-2.2,2.3-3.2.3-.4.5-.8.8-1.1,1.5,1,3.1,2,4.8,2.7,1,.4,1.9-1,.8-1.5-1.6-.8-3.2-1.6-4.8-2.5,1.6-2.4,3.1-4.9,4.4-7.4,2,1.4,4,2.8,6.1,4,1.1.7,2.1-1,1-1.8Z"/>
  <path class="cls-2" d="M1428.4,984.2c-1.3-.7-2.8-.4-4,.3.2-.5.5-1.1.7-1.6.4-.8-.7-1.5-1.2-.7-1.1,1.9-1.9,3.8-2.7,5.8,0,.2-.1.3-.2.5-.4,1,1.2,1.6,1.7.7.7-1.4,2.6-3.9,4.5-3.2,1.8.6.8,3.2,0,4.7-.3,0-.6.3-.7.7,0,.3,0,.5,0,.8,0,.4.4.7.8.7,0,0,.1,0,.2,0,.3,0,.8,0,1-.3,1.8-2.2,3.4-6.9,0-8.6Z"/>
  <path class="cls-2" d="M1439,984.4c-.3-.1-.6,0-.8.3,0,0,0,0-.2,0-.3-.1-.7-.3-1-.4-.5-.2-1-.4-1.5-.6-1-.5-2.1-.9-3.1-1.3-.8-.3-1.3,1-.6,1.4,1.2.7,2.6,1.3,3.8,1.9.8.4,1.8,1.1,2.8,1.2,1.5,0,1.9-1.8.5-2.3Z"/>
  <path class="cls-2" d="M1440.5,982c-2.6-2.1-5.7-4-8.6-5.6-.8-.4-1.4.7-.7,1.2,2.8,1.9,5.4,3.9,8.2,5.8.8.6,1.9-.8,1.1-1.4Z"/>
  <path class="cls-2" d="M1470.6,1004.2c-.4-.4-.7-.7-1.1-1-.3-.3-.7-.3-1-.2-8.3-4.9-16.5-9.9-25.1-14.5-.9-.5-1.6.8-.8,1.3,8.9,5.2,17.9,10.4,26.5,16.2,1.1.7,2.3-.9,1.4-1.8Z"/>
  <path class="cls-2" d="M1458.7,991.4c-1-2.2-2.3-4.5-3.7-6.5,1-.1,2-.2,2.3-.2,1.6-.1,3.2-.2,4.7-.6,1-.2.8-1.7-.2-1.7-1.4,0-2.8.3-4.2.4-1,.1-2.1.2-3.2.4,1.7-2.1,3.5-4.2,5.4-6.2.5,0,1-.1,1.1-.7,0-.2,0-.5.1-.7.2-1-1-1.8-1.7-1-4.1,4.2-7.8,8.8-10.6,14-.4.8.7,1.4,1.2.7.7-.9,1.3-1.8,2-2.7.4.4,1.3,0,1.1-.7-.1-.3.2-.5.7-.7,1.3,2.3,2.4,4.5,3.4,6.9.5,1.2,2.2.5,1.7-.7Z"/>
  <path class="cls-2" d="M1470.6,990.2c-1.5.2-3,.3-4.5.4,0-1-.1-2-.3-3.1-.1-.9-1.5-.6-1.5.2,0,1,0,1.9,0,2.9-1.2,0-2.5,0-3.8-.2-1-.1-1.4,1.3-.4,1.5,1.4.3,2.8.5,4.3.6,0,.2,0,.4,0,.6-.2.1-.4.4-.5.6-.5,1.6,1.8,2.2,2.3.6.2-.5.1-1.1,0-1.7,1.5,0,3.1-.1,4.5-.5,1-.2.8-1.9-.2-1.8Z"/>
  <path class="cls-2" d="M1479.6,990.8c-1.1-.2-2.3-.5-3.3-1.1-1.3-.8-.9-1,0-2.1.8-1.1,1.5-2.4,1.3-3.8-.3-2.2-3.4-3.4-4.5-1-.3.8.7,1.5,1.2.7,1.3-.2,1.8.2,1.3,1.3-.2.6-.5,1-.9,1.5-.3.4-.7.7-.9,1.1-.5.7-.9,1.5-.6,2.4.7,2,4,2.9,5.8,3.3,1.4.3,2-1.9.6-2.2Z"/>
  <path class="cls-2" d="M1461.2,1017.7c-3.2-2.4-6.9-4.3-10.5-6,1.8-1,3.6-2.1,5.2-3.4,1.3-1.1,3.8-2.6,3.8-4.5,0-4.6-6.7-3.5-9.3-2.7-.9.3-.6,1.7.4,1.5,1.1-.3,2.8-1,4-.6,4.8,1.6,1.3,3.5-.3,4.7-2.2,1.7-4.5,3-7,4.1-.8.4-.8,1.7,0,2,4.4,2,8.4,4.5,12.7,6.9,1.3.7,2.2-1.1,1.1-1.9Z"/>
  <path class="cls-1" d="M1282.8,502.3s-6.7,5.3-5.1,20.3c1.6,15,14.3,20.3,14.3,20.3"/>
  <path class="cls-1" d="M1327,494.2s8.1,2.6,11.9,17.2c3.8,14.5-6.2,24-6.2,24"/>
  <path class="cls-1" d="M1360.8,488s-6.7,5.3-5.1,20.3c1.6,15,14.3,20.3,14.3,20.3"/>
  <path class="cls-1" d="M1402.7,480.3s8.1,2.6,12,17.2c3.8,14.5-6.2,24-6.2,24"/>
  <path class="cls-2" d="M1297.4,521.9c0,.1.1.2.1.3,0,.3,0,.6-.1.8-.1.3-.3.4-.5.5-.2,0-.8-.2-1.6-.8-.4-.4-.7-.7-.9-.8-.2-.2-.5-.4-.7-.5-.2-.2-.5-.3-.7-.5-.3-.2-.6-.5-1.1-.9l-1.1,2c-.2.5-.3.9-.5,1.2-.1.3-.2.6-.3.9,0,.3-.2.5-.3.8-.1.3-.2.6-.4.9-.1.2-.3.3-.5.3-.3,0-.5,0-.8,0-.2,0-.3-.3-.4-.5,0,0,0-.2,0-.4,0-.2.1-.4.2-.6,0-.2.2-.4.2-.6,0-.2.1-.4.2-.6.1-.3.3-.6.4-.9.1-.3.3-.6.4-.9.2-.3.3-.7.6-1.1.2-.4.5-1,.8-1.6-.2,0-.4-.2-.6-.3-.2-.1-.3-.2-.6-.4-.2-.1-.5-.3-.8-.5-.3-.2-.8-.4-1.3-.7-.4-.2-.8-.4-.9-.5-.2-.1-.3-.3-.3-.6-.1-.6.1-1,.7-1.1.2,0,.3,0,.5,0l1.7.9c0,0,.3.2.5.4.3.1.6.3.9.4.3.1.6.3.8.4.2,0,.4.1.4.2.2-.2.4-.5.5-.7.2-.2.3-.5.4-.6,0-.2.2-.3.2-.4,0-.1,0-.1,0-.1.3-.6.5-1.1.7-1.3.2-.3.4-.5.6-.5.6-.1,1,0,1.1.6,0,.3,0,.7-.4,1.3l-.9,1.8-.6,1c.5.4,1.3,1,2.4,1.8l2.3,1.8ZM1314.1,511.7c0,.1-.3.3-.7.5-.4.2-.7.3-1.1.4-.4.1-.7.2-1,.3-.3,0-.4,0-.4,0,0,0-.2,0-.5.1-.3,0-.6.2-1.1.2,0,0-.2,0-.3,0,0,0-.2,0-.2,0,.1.7.2,1.4.4,2,.1.6.2,1.2.2,1.7,0,.5,0,.9-.1,1.2-.1.3-.4.5-.8.5-.3,0-.6,0-.9,0-.2,0-.4-.4-.5-.9,0-.3-.1-.6-.2-1,0-.4,0-.9,0-1.4,0,0,0-.2,0-.4,0-.4-.1-.7-.2-1,0-.3,0-.4,0-.5-.4,0-.7,0-1,.2-.3,0-.6.1-.9.2-1,.2-1.8.4-2.3.5-.8,0-1.3-.2-1.4-.9-.1-.6.1-1,.8-1.1.8-.2,1.5-.2,1.9-.3.4,0,.8-.1,1.1-.2.2,0,.5,0,.8-.1.3,0,.5-.1.8-.2,0-.3-.1-.6-.2-.8,0-.2,0-.4-.1-.6,0-.4,0-.7,0-.8,0-.5-.3-1.2-.6-2.1,0-.7.3-1.1,1-1.3.3,0,.6,0,.8,0,.2.1.3.4.5.7.1.3.2.7.4,1.3.1.5.3,1.2.5,2l.2,1.2c.2,0,.5-.1.8-.2.3,0,.7-.2,1.1-.3,0,0,.2,0,.4,0,.3,0,.6-.1.8-.2.3,0,.5-.1.7-.2.2,0,.4-.1.5-.2.1,0,.2,0,.1,0,.6,0,.9.2,1,.9,0,.2,0,.4,0,.6ZM1331.5,507.2c0,.4,0,.8,0,1.2,0,.3,0,.7-.2,1.1,0,.4-.2.8-.3,1.2-.1.4-.2,1-.4,1.6,0,.9,0,1.7-.3,2.5-.2.8-.5,1.5-.8,2.3-.3.7-.6,1.4-.9,2.1-.3.7-.5,1.4-.6,2.1-.3.5-.4,1-.6,1.4-.1.4-.2.8-.4,1.1-.1.4-.3.7-.4,1.1-.2.4-.4.9-.8,1.4-.1,0-.2.1-.4.1-.3,0-.6,0-.9-.1-.3-.1-.4-.3-.5-.5,0-.1,0-.3,0-.4l1.5-3.6c0-.2.1-.5.2-.9s.3-.8.4-1.3c.2-.5.3-.9.5-1.4.1-.5.2-.8.2-1.1-.2,0-.4-.2-.6-.3-.3-.2-.5-.4-.8-.5-.3-.2-.6-.4-.8-.5-.3-.2-.5-.3-.7-.3-.5-.5-.9-.8-1.2-.9-.3-.2-.5-.4-.8-.5-.3-.2-.6-.4-1-.8-.4-.4-1-1-1.7-1.9,0,0,0-.1,0-.2,0-.3,0-.6.2-.9.2-.3.4-.5.7-.5.2,0,.5,0,.9.3.4.3.8.6,1.2.9.4.3.8.7,1.1,1,.3.3.5.5.6.6.2.1.4.3.7.5.3.3.7.5,1.1.8.4.3.8.5,1.1.7.4.2.7.4.9.4.1-.2.3-.8.4-1.6.2-.8.3-1.7.5-2.5.1-.7.3-1.3.4-2,.2-.7.3-1.3.2-1.8.3-.3.7-.5,1-.6.6-.1,1,0,1.2.6ZM1349,505.9c-.2.1-.5.2-.7.2-.1,0-.3,0-.5,0-.2,0-.4,0-.7,0-.2,0-.5,0-.7,0-.2,0-.4,0-.6,0,0,0-.2,0-.6.1-.4,0-1,.1-1.8.3-.6.1-.9.2-1,.4-.4,0-.9.2-1.5.4-.6.2-1.2.3-2,.5-.8,0-1.2-.2-1.4-.8,0-.2,0-.4,0-.6,0-.2.1-.3.3-.5.2-.2.6-.3,1.1-.5.5-.2,1.2-.3,2.1-.5.1,0,.2,0,.4,0,.2,0,.3,0,.5,0,.9-.2,2-.4,3.5-.7.4,0,.9-.1,1.4-.2.5,0,1.1,0,1.6-.1.5.3.8.6.8,1,0,.3,0,.6-.2.9Z"/>
  <path class="cls-2" d="M1373.1,508c0,.1.1.2.2.3,0,.3,0,.6-.1.8-.1.3-.3.4-.5.5-.2,0-.8-.2-1.6-.8-.4-.4-.7-.7-.9-.8-.2-.2-.5-.4-.7-.5-.2-.2-.5-.3-.7-.5-.3-.2-.6-.5-1.1-.9l-1.1,2c-.2.5-.3.9-.5,1.2-.1.3-.2.6-.3.9,0,.3-.2.5-.3.8-.1.3-.2.6-.4.9-.1.2-.3.3-.5.3-.3,0-.5,0-.8,0-.2,0-.3-.3-.4-.5,0,0,0-.2,0-.4,0-.2.1-.4.2-.6,0-.2.2-.4.2-.6,0-.2.1-.4.2-.6.1-.3.3-.6.4-.9.1-.3.3-.6.4-.9.2-.3.3-.7.6-1.1.2-.4.5-1,.8-1.6-.2,0-.4-.2-.6-.3-.2-.1-.4-.2-.6-.4-.2-.1-.5-.3-.8-.5-.3-.2-.8-.4-1.4-.7-.4-.2-.7-.4-.9-.5-.2-.1-.3-.3-.3-.6-.1-.6.1-1,.7-1.1.2,0,.3,0,.5,0l1.7.9c0,.1.3.2.5.4.3.1.6.3.8.4.3.1.6.3.8.4.2,0,.4.1.4.2.2-.2.4-.5.5-.7.2-.2.3-.5.3-.6.1-.2.2-.3.2-.4,0-.1,0-.1,0-.1.3-.6.5-1.1.7-1.3.2-.3.4-.5.6-.5.6-.1,1,0,1.1.6,0,.3,0,.7-.4,1.3l-.9,1.8-.6,1c.5.4,1.3,1,2.4,1.8l2.3,1.8ZM1389,498.6c-.2.1-.5.2-.7.2-.1,0-.3,0-.5,0-.2,0-.4,0-.7,0-.2,0-.5,0-.7,0-.2,0-.4,0-.6,0,0,0-.2,0-.6.1-.4,0-1,.1-1.8.3-.6.1-.9.2-1,.4-.4,0-.9.2-1.5.4-.6.2-1.3.3-2,.5-.8,0-1.2-.2-1.4-.8,0-.2,0-.4,0-.6,0-.2.1-.3.3-.5.2-.2.6-.3,1.1-.5.5-.2,1.2-.3,2.1-.5.1,0,.2,0,.4,0,.2,0,.3,0,.5,0,.9-.2,2-.4,3.5-.7.4,0,.9-.1,1.4-.2.5,0,1.1,0,1.6-.1.5.3.8.6.8,1,0,.3,0,.6-.2.9ZM1407.1,493.3c0,.4,0,.8,0,1.2,0,.3,0,.7-.2,1.1,0,.4-.2.8-.3,1.2-.1.4-.2,1-.4,1.6,0,.9,0,1.7-.3,2.5-.2.8-.5,1.5-.8,2.3-.3.7-.6,1.4-.9,2.1-.3.7-.5,1.4-.6,2.1-.3.5-.5,1-.6,1.4-.1.4-.2.8-.4,1.1-.1.4-.3.7-.4,1.1-.2.4-.4.9-.8,1.4-.1,0-.2.1-.4.1-.3,0-.6,0-.9-.1-.3-.1-.4-.3-.5-.5,0-.1,0-.3,0-.4l1.5-3.6c0-.2.1-.5.2-.9.1-.4.3-.8.4-1.3.2-.5.3-.9.4-1.4.1-.5.2-.9.2-1.1-.2,0-.4-.2-.6-.3-.3-.2-.5-.4-.8-.5-.3-.2-.6-.4-.8-.5-.3-.2-.5-.3-.7-.3-.5-.5-.9-.8-1.1-.9-.3-.2-.5-.4-.8-.5-.3-.2-.6-.4-1-.8-.4-.4-1-1-1.7-1.9,0,0,0-.1,0-.2,0-.3,0-.6.1-.9.2-.3.4-.5.7-.5.2,0,.5,0,.9.3.4.3.8.6,1.2.9.4.3.8.7,1.1,1,.3.3.5.5.6.6.1.1.4.3.7.5.3.3.7.5,1.1.8.4.3.8.5,1.1.7.4.2.7.4.9.4.1-.2.3-.8.4-1.6.2-.8.3-1.7.5-2.5.1-.7.3-1.3.4-2,.2-.7.3-1.3.2-1.8.3-.3.7-.5,1-.6.6-.1,1,0,1.2.6Z"/>
  <path class="cls-2" d="M1340.1,487.4c-.2,0-.3,0-.4,0,0,0-.2,0-.2,0,0,0,0,0-.1,0,0,0,0,0-.2,0,0,0-.2,0-.3,0,0,0-.2,0-.3,0-.3,0-.6,0-1,0-.1,0-.2,0-.4,0-.1,0-.3,0-.4,0-.1,0-.3,0-.5,0-.2,0-.5,0-.8,0-.2-.1-.3-.3-.4-.5,0-.1,0-.3,0-.5.3-.4.5-.8.7-1,.1-.3.3-.5.4-.7,0-.2.2-.4.3-.6,0-.2.3-.5.5-.8,0,0,0-.1.1-.3,0-.1.1-.3.2-.4,0-.2.1-.3.2-.5,0-.1.1-.3.2-.4.3-.4.3-.9.3-1.4,0-.2-.1-.4-.3-.5-.1-.1-.4-.1-.7,0-.5.1-1,.3-1.3.6-.3.3-.6.7-.7,1.1,0,.2-.1.4-.2.5,0,.1,0,.2,0,.3,0,0,0,.1-.1.1,0,0,0,0-.2,0-.1,0-.3,0-.4,0-.1,0-.2-.2-.2-.4,0-.1,0-.3,0-.5,0-.2.1-.4.2-.7.1-.2.2-.4.3-.6.1-.2.2-.3.3-.4.6-.5,1.4-.9,2.3-1.1.3,0,.6,0,.8,0,.2,0,.4.1.6.3.2.1.3.3.4.5,0,.2.2.4.2.7.1.6,0,1.2-.3,1.7,0,.1-.2.3-.2.5,0,.2-.1.3-.2.5,0,.1-.1.3-.2.4,0,.1,0,.2-.1.3,0,0,0,0-.2.2,0,0-.2.2-.2.4,0,.2-.2.3-.3.5,0,.2-.2.4-.2.6-.4.4-.6.7-.6.9.3,0,.7,0,1.1,0,.2,0,.4,0,.5,0,.1,0,.2,0,.3-.1,0,0,.1,0,.2,0,0,0,.1,0,.2,0,.2,0,.4,0,.6-.1.2,0,.4,0,.7-.1,0,0,.2,0,.3.2,0,.1.2.2.2.4,0,.2,0,.4-.1.4-.1,0-.2.1-.4.1Z"/>
  <path class="cls-2" d="M1603.9,446c1-4.6,2-9.4,4.3-13.6,2.4-4.4,6.4-7.6,10.1-10.8,8.4-7.2,17.6-11.6,28.9-11.3.5,0,.8-.4.8-.8,4.1-1.1,5.4-5.3,5-9.2-1.2-11.5-10.7-22.4-18.8-29.9-5.1-4.8-10.8-9.6-16.8-13.3-5.1-3.1-11-5-16.7-2.7-.3.1-.4.3-.5.5-.6.3-1.1.8-1.5,1.4-.3-.2-.8,0-.8.4,0,.7-.1,1.3-.2,2-.1.6-.2,1.3-.2,2-1,7.8-3.2,15.3-5.8,22.7-3.6,10.4-10.7,16.1-21.2,18.7-7.5,1.9-16.3,2-23.3,5.6-5.5,2.8-5.5,7.5-3.4,12.7,2.9,7.5,8.7,13.6,14.1,19.3,5.9,6.3,12.2,12.4,19.5,17.2,4.8,3.1,13,8.6,19.1,5.7,5.7-2.7,6.4-11.1,7.5-16.5ZM1599,358c.3-.9.9-1.6,1.8-2.1,0,0,.2,0,.3,0,11.6-4,23.6,8,31.4,15.2,4.6,4.3,8.9,8.9,12.3,14.2,3.1,4.7,7.3,11.6,6.5,17.5-2,15.3-29.2-8.7-33.4-12.9-4.8-4.7-9.1-9.8-12.9-15.3-1.5-2.1-5.3-8.1-6.1-12.8.1-1.2.2-2.5.1-3.7ZM1593.8,382.3c1.8-5.4,3.6-11,4.5-16.7,1.2,3.7,3.5,7.2,5.7,10.3,8,11.4,18.3,21.7,30.2,29,2.1,1.3,4.7,2.9,7.4,3.9-11.4,1.3-21.3,7.7-29.5,15.9-.2-.2-.4-.3-.7-.2-7.3,1.8-13.8-3.3-18.5-8.4-4.6-4.9-9-11.7-8.6-18.7,4.8-3.9,7.5-9.2,9.5-15.2ZM1585,459.2c-7.9-3.8-14.8-9.5-21-15.6-5.9-5.9-12.3-12.2-16.5-19.5-2.4-4.2-5.7-10.9-.6-14.4,3.5-2.3,8.5-3,12.5-3.7,7.3-1.4,14.8-2.4,21.3-6,.8-.4,1.5-.9,2.2-1.3-.8,7.2,5.2,15.2,9.9,19.9,4.1,4.1,11.3,9.9,17.7,8-4.6,5-6.4,11.2-7.8,17.7-.8,3.6-1.3,7.4-2.5,10.9-2.7,7.7-8.9,7.1-15.1,4.1Z"/>
  <path class="cls-2" d="M1590.3,397.1c-1.1-.4-2.2-.8-3.3-1.1-.5-.1-.8.6-.3.8,1.1.5,2.2.9,3.3,1.3.7.2.9-.8.3-1Z"/>
  <path class="cls-2" d="M1597.2,401.8c-1.3-1-2.7-1.9-4.2-2.6-.4-.2-.9.3-.5.7,1.2,1.1,2.7,2.1,4.1,2.9.7.4,1.2-.6.6-1Z"/>
  <path class="cls-2" d="M1604.4,408.6c-1.1-1.2-2.3-2.2-3.5-3.3-.5-.4-1.1.2-.7.7,1.1,1.2,2.2,2.4,3.3,3.5.6.6,1.4-.3.9-.9Z"/>
  <path class="cls-2" d="M1609.2,415.7c-.6-1.3-1.4-2.5-2.3-3.6-.4-.4-1.2.1-.8.6.8,1.2,1.4,2.4,2,3.7.3.8,1.5.1,1.2-.7Z"/>
  <path class="cls-2" d="M1611.4,423.8c.8-1.7.2-3.8-1-5-.5-.5-1.3.3-.8.8.9,1.1.9,2.4.5,3.7-.2.8,1,1.3,1.3.5Z"/>
  <path class="cls-2" d="M1554.6,409.4c-1.7-.6-3.6-.8-5.4-.6-.5,0-.5.8,0,.8,1.8.1,3.4.5,5.1.9.7.2,1-.9.3-1.1Z"/>
  <path class="cls-2" d="M1564.3,414.9c-1.7-1.1-3.6-2-5.4-3-.5-.3-1,.5-.5.8,1.8,1.1,3.5,2.2,5.3,3.2.7.4,1.2-.6.6-1Z"/>
  <path class="cls-2" d="M1573.7,422.7c-1.5-1.2-3-2.4-4.4-3.7-.4-.4-1.1.2-.7.7,1.3,1.5,2.7,2.9,4.3,4,.6.4,1.3-.5.7-1Z"/>
  <path class="cls-2" d="M1582.2,431.4c-1.2-1.8-2.8-3.3-4.3-4.8-.5-.5-1.3.3-.8.8,1.5,1.5,2.8,3.1,4.2,4.7.4.5,1.3-.2.9-.7Z"/>
  <path class="cls-2" d="M1589.3,440.4c-.9-1.7-2.1-3.3-3.3-4.8-.4-.5-1.2,0-.9.5,1,1.7,1.9,3.4,3.1,4.9.4.6,1.4.1,1-.6Z"/>
  <path class="cls-2" d="M1594.2,449.1c-.3-1.5-1.1-2.8-2.1-3.9-.5-.6-1.4.3-.9.9.9,1,1.4,2.2,1.7,3.4.2.9,1.5.5,1.3-.3Z"/>
  <path class="cls-2" d="M1596.2,458.3c0-1.9-.7-3.9-1.5-5.6-.3-.7-1.3-.1-1,.6.7,1.7.9,3.2,1,5,0,.9,1.5,1,1.5,0Z"/>
  <path class="cls-2" d="M425.3,502.8c-7.1-7.2-17.1-11.7-27.3-10-13.8,2.3-23.8,13.9-27.5,27-3.8,13.4,2,26.7,13.9,34,12.8,7.8,29.9,5.8,40.3-5.2,0,0,0,0,.1,0,.3.2.6.2.9,0,4.7-4.5,6.6-12.8,7.9-19,1.4-6.5,1-12.9-2.3-18.8-1.4-2.6-3.2-5-5.2-7.1,0-.4-.4-.8-.8-.8ZM371.1,524.4c1.3-8.4,5.6-16.6,11.9-22.4-2.4,12,1.1,24.8,9.5,33.9-6.1,2.5-12.6,3.7-19.3,3.2-2-4.5-2.9-9.5-2.1-14.7ZM390.1,555c-7.1-2.8-13-8.2-16.4-14.8,6.9.9,13.7-.4,19.9-3.1,4.8,4.7,10.8,7.9,17.1,10.1,2.8,1,7.5,2.9,11.2,2.4-9,7.1-20.9,9.7-31.8,5.3ZM426.2,506.3c5.3,6,7.5,13.1,6.2,21-.9,5.9-2.9,14.3-6.9,19.1,0,0,0,0,0,0-4,4.5-15.6-1-19.9-3.1-3.8-1.8-7.3-4.2-10.4-7,3.1-1.4,6-3.2,8.7-5.2.6-.4,1.1-.8,1.7-1.3.7,1,1.5,2,2.3,3,.4.4,1-.2.7-.7-.7-1-1.6-1.8-2.5-2.7,4.2-3.4,8-7.2,11.5-11.3,3.3-3.8,6.4-7.8,8-12.6.2.2.4.5.7.7ZM423.7,504.1c-.5.4-.2,1,.3,1.2-1.7,4.9-5.1,9-8.6,12.9-.6.7-1.3,1.4-1.9,2.1,0,0,0,0,0,0-.8-1.3-1.9-2.5-2.9-3.6-.5-.5-1.1.2-.7.7.9,1.1,1.9,2.3,3.1,3.3,0,0,.1,0,.2,0-3.3,3.5-6.8,6.8-10.6,9.5-2.7,1.9-5.6,3.6-8.5,5-.8-.8-1.6-1.7-2.3-2.6-.7-.9-1.4-1.9-2-2.9,1.3-.9,2.6-1.7,3.8-2.7.4-.4-.1-1.1-.6-.8-1.3.8-2.4,1.8-3.6,2.8-5.1-8.4-6.7-18.7-4.4-28.3,0,0,0-.1,0-.2,0,.4.5.7.9.4,0,0,0,0,0,0,0,0,.2,0,.2.1.2,0,.4,0,.6,0,.4-.3.1-1-.4-.8,0,0,0,0,0,0,0,0-.1,0-.1-.1-.1,0-.2-.2-.3-.2,2.3-1.7,4.9-3.1,7.7-4.1,11.5-4.1,22.3.1,30.5,8.2,0,0-.1.1-.2.2Z"/>
  <path class="cls-2" d="M377.3,531.1c-1.4,1.2-2.8,2.9-3.4,4.7,0,.3.3.5.5.3,1.2-1.5,2.2-2.9,3.6-4.3.4-.4-.2-1-.6-.6Z"/>
  <path class="cls-2" d="M383.9,524.8c-1.4.9-2.5,2.1-3.5,3.4-.3.4.2,1,.6.6,1.1-1.2,2.3-2.2,3.5-3.2.5-.4-.1-1.1-.6-.8Z"/>
  <path class="cls-2" d="M391.3,519.2c-1.2.9-2.4,2-3.5,3-.4.3.2.9.6.6,1.2-.9,2.4-1.8,3.5-2.8.4-.4-.1-1.1-.6-.8Z"/>
  <path class="cls-2" d="M401.4,512.6c-1.9.7-3.8,1.7-5.5,2.9-.3-.2-.5-.4-.8-.6-.3-.2-.7.3-.4.5.2.2.3.3.5.5-.2.1-.3.2-.5.3-.5.3,0,1.1.4.8.2-.1.4-.3.7-.4.6.8,1.2,1.6,1.7,2.5.3.5,1,0,.8-.5-.4-1-1-1.8-1.8-2.5,1.7-1,3.4-1.8,5.1-2.6.5-.3.2-1.2-.4-1Z"/>
  <path class="cls-2" d="M408.8,508.9c-.9.3-1.9.8-2.8,1.2-.8-.6-1.7-1.2-2.6-1.7-.5-.3-1,.5-.5.9.7.5,1.4.9,2.1,1.3-.3.2-.7.4-1,.5-.5.3,0,1,.4.8.5-.2,1.1-.4,1.7-.7.2,0,.3.2.5.3.4.3.8-.4.4-.7.7-.3,1.4-.6,2.1-1,.5-.3.2-1.1-.4-.9Z"/>
  <path class="cls-2" d="M415.5,506.4c-1.1,0-2.2.3-3.2.9-.6.3,0,1.1.5.9.9-.4,1.8-.6,2.7-.6.7,0,.7-1.1,0-1.1Z"/>
  <path class="cls-2" d="M422.5,503.8c-1.7-.3-3.5.5-4.7,1.5-.4.3.1,1.1.6.8.6-.4,1.2-.7,1.9-.9.5-.1.9-.1,1.4-.2-1,.7-2,1.4-2.9,2.2-.5.4,0,1.3.5.9,1.2-.8,2.4-1.6,3.6-2.4.4-.3.3-.8,0-1.1.2-.3.1-.8-.3-.9Z"/>
  <path class="cls-2" d="M422.2,541.7c.7,1.7,1.2,3.4,1.5,5.2,0,.5.8.3.8-.1,0-1.9-.5-3.9-1.4-5.6-.3-.6-1.1,0-.9.5Z"/>
  <path class="cls-2" d="M419.4,532.1c.5,1.7,1.3,3.3,2,4.9.2.5,1.1.2.9-.4-.6-1.7-1.2-3.4-2-4.9-.3-.5-1.1-.2-.9.4Z"/>
  <path class="cls-2" d="M414.8,523.9c1,1.7,2.2,3.4,3.5,4.9.3.4.9-.1.7-.5-.9-1.7-2-3.4-3.1-5-.4-.6-1.4,0-1,.6Z"/>
  <path class="cls-2" d="M397.5,504.7c-.6-.3-1.1.6-.5.9.8.4,1.4.9,2,1.5.3.3.8,0,.6-.4-.5-.8-1.2-1.5-2.1-2Z"/>
  <path class="cls-2" d="M389.8,500.1c-.6,0-.7.9-.1,1,1.1.1,2,.4,2.9,1,.4.3.9-.4.5-.7-.9-.8-2.1-1.3-3.3-1.3Z"/>
  <path class="cls-2" d="M386.3,502.5c.7,1.4,1.7,2.9,2.7,4.1.4.4,1-.1.8-.6-.8-1.4-1.8-2.8-2.9-4-.3-.3-.8,0-.6.4Z"/>
  <path class="cls-2" d="M390.8,508.8c-.2-.2-.5.2-.3.4.9.9,1.5,1.9,2,3,.3.6,1.1,0,.8-.5-.5-1.2-1.5-2.2-2.6-2.9Z"/>
  <path class="cls-2" d="M401.2,520.9c-1.8,1-3.5,2.4-5.1,3.7-.4.3.1,1,.5.7,1.3-.8,2.6-1.6,3.9-2.5.6.9,1.2,1.9,1.8,2.8.3.4,1.1,0,.8-.4-.6-1-1.4-1.8-2.1-2.8.3-.2.5-.4.8-.6.4-.4-.1-1-.6-.8Z"/>
  <path class="cls-2" d="M410.5,535.1c-.3-.3-.7.1-.4.4.8.9,1.5,1.9,2.1,3,.3.5,1,0,.7-.4-.6-1.2-1.4-2.1-2.4-3Z"/>
  <path class="cls-2" d="M415.2,541.1c.5.9,1.1,1.7,1.8,2.4.3.3.9-.1.7-.5-.6-.8-1.2-1.6-1.9-2.3-.3-.3-.7,0-.5.4Z"/>
  <path class="cls-2" d="M422.2,546.7c-1-.5-1.9-1-2.6-2-.2-.4-.9,0-.6.4.6,1.2,1.6,2.1,2.8,2.6.5.2.9-.7.4-.9Z"/>
  <path class="cls-2" d="M378,535.4c-1.4.8-2.8,1.7-4.1,2.6-.3.2,0,.8.3.6,1.4-.7,2.9-1.5,4.2-2.4.5-.3,0-1.1-.5-.8Z"/>
  <path class="cls-2" d="M385.8,530.9c-1.6.9-3,2-4.5,3-.3.2,0,.8.3.6,1.6-.9,3.2-1.7,4.6-2.8.4-.3,0-1.1-.4-.8Z"/>
  <path class="cls-2" d="M409,514.9c-1.8,1-3.4,2.6-4.7,4.1-.3.4.2,1,.6.6,1.5-1.4,3.1-2.6,4.7-3.9.5-.4-.1-1.1-.6-.8Z"/>
  <path class="cls-2" d="M415.2,509.8c-.8.8-1.6,1.6-2.4,2.5-.5.5.2,1.2.7.7.8-.8,1.7-1.6,2.5-2.4.5-.5-.3-1.3-.8-.8Z"/>
  <path class="cls-2" d="M637.8,1010.4c-.2.1-.4.2-.6.2-.1,0-.3,0-.4,0-.2,0-.4,0-.6,0-.2,0-.4,0-.6.1-.2,0-.3,0-.5,0,0,0-.2,0-.5.1-.3,0-.8.2-1.5.3-.5.1-.7.2-.8.4-.3.1-.8.2-1.3.4-.5.2-1,.4-1.7.6-.7.1-1.1,0-1.2-.6,0-.2,0-.3,0-.5,0-.2,0-.3.3-.5.2-.1.5-.3.9-.5.4-.2,1-.4,1.8-.6,0,0,.2,0,.3,0,.1,0,.3,0,.4-.1.7-.2,1.7-.5,2.9-.9.4,0,.8-.1,1.2-.2.4,0,.9-.2,1.4-.2.4.2.7.4.8.8,0,.2,0,.5-.1.8ZM653.2,1004.1c.8.9,1.3,1.7,1.5,2.5,0,.3.1.6.1.9,0,.3,0,.6,0,1l-.3,1.7-.7,1.3c-.5.9-1.1,1.5-1.6,1.9-.6.4-1.1.6-1.5.7-.5.2-1.2.1-2-.1,0,.4-.4.6-.8.7-.3,0-.7,0-1,0,0-.3-.1-.6-.2-1,0-.4-.2-.8-.3-1.2,0,0,0-.2-.2-.5,0-.3-.2-.6-.4-1-.1-.4-.3-.8-.4-1.2-.2-.5-.3-.9-.5-1.2-.1-.4-.3-.7-.4-1-.1-.3-.2-.4-.2-.5l-1.4-3.6c-.3-.9-.7-1.6-1-2.2-.3-.6-.6-1.1-.6-1.3-.2-.8,0-1.3.7-1.4.4-.1.8,0,1.1.2.3.2.7.8,1,1.7.2.5.3.9.5,1.2.1.3.3.5.4.7h0c0,.2,0,.4.2.7.1.4.3.8.4,1.2.1.4.3.8.4,1.1.1.3.2.4.2.4.4-.5.7-.8,1-1.1.3-.3.6-.5.9-.7.3-.2.6-.3,1-.5.3-.1.7-.3,1.2-.4h1.4c.7.2,1.3.5,1.8,1.1ZM652.7,1008.3c0-.7-.1-1.1-.2-1.4,0-.1-.1-.3-.3-.6-.2-.2-.4-.5-.6-.7-.2-.2-.5-.4-.8-.5-.3-.1-.6-.1-1,0-.4,0-.8.4-1.4.9-.5.5-1,1-1.6,1.5.4.9.8,2.2,1.3,3.8.5.7,1,1,1.6.9.4,0,.8-.4,1.5-.9l1-1.4c.3-.6.5-1.1.4-1.6ZM671.7,999.7c0,.2-.3.3-.6.5-.3.2-.7.3-1,.5-.4.2-.7.3-1,.4-.3.1-.4.1-.3.1,0,0-.2,0-.4.1-.3,0-.6.2-1,.3,0,0-.2,0-.3,0,0,0-.2,0-.2,0,.2.7.4,1.3.5,2,.2.6.3,1.1.4,1.6,0,.5,0,.8,0,1.1-.1.3-.3.5-.7.6-.3,0-.6,0-.8,0-.2,0-.4-.3-.5-.8,0-.3-.1-.6-.2-1,0-.4-.1-.9-.2-1.4,0,0,0-.2-.1-.4-.1-.4-.2-.7-.2-1,0-.3,0-.4,0-.5-.4,0-.7.2-1,.2-.3,0-.6.2-.9.2-1,.3-1.7.5-2.2.7-.8.1-1.3-.1-1.5-.8-.2-.6,0-1,.6-1.1.8-.2,1.4-.4,1.8-.4.4,0,.8-.2,1-.2.2,0,.5-.1.7-.2.2,0,.5-.2.8-.3,0-.3-.2-.5-.3-.7,0-.2-.1-.4-.2-.6-.1-.4-.1-.7-.1-.8-.1-.5-.4-1.2-.8-2,0-.7.2-1.1.8-1.3.3,0,.6,0,.8,0,.2.1.4.3.5.6.1.3.3.7.5,1.2.2.5.4,1.1.6,1.9l.3,1.1c.2,0,.5-.2.7-.3.3-.1.6-.2,1-.4,0,0,.2,0,.4,0,.3,0,.5-.2.8-.2.2,0,.5-.2.6-.2.2,0,.3-.2.4-.2s.1,0,.1,0c.6,0,.9.2,1.1.8,0,.2,0,.4,0,.6ZM700.5,991.5c.8.9,1.3,1.7,1.5,2.5,0,.3.1.6.2.9,0,.3,0,.6,0,1l-.3,1.7-.7,1.3c-.5.9-1.1,1.5-1.6,1.9-.6.4-1.1.6-1.5.7-.5.1-1.2.1-2-.1,0,.4-.4.6-.8.8-.3,0-.7,0-1,0,0-.3-.1-.6-.2-1,0-.4-.2-.8-.3-1.2,0,0,0-.2-.2-.5,0-.3-.2-.6-.4-1-.1-.4-.3-.8-.4-1.2-.2-.4-.3-.9-.5-1.2-.1-.4-.3-.7-.4-1-.1-.3-.2-.4-.2-.5l-1.4-3.6c-.3-.9-.7-1.6-1-2.2-.3-.6-.6-1.1-.6-1.3-.2-.8,0-1.3.7-1.4.4-.1.8,0,1.1.2.3.2.7.8,1,1.7.2.5.3.9.5,1.2.1.3.3.5.4.7h0c0,.2,0,.4.2.7.1.4.3.8.4,1.2.1.4.3.7.4,1.1.1.3.2.4.2.4.4-.5.7-.8,1-1.1.3-.3.6-.5.9-.7.3-.2.6-.3,1-.5.3-.1.7-.3,1.2-.4h1.4c.7.2,1.3.6,1.8,1.1ZM700,995.6c0-.7-.1-1.1-.2-1.4,0-.1-.1-.3-.3-.6-.2-.2-.3-.5-.6-.7-.2-.2-.5-.4-.8-.5-.3-.1-.6-.1-1,0-.4.1-.8.4-1.4.9-.5.5-1,1-1.6,1.5.4.9.8,2.2,1.3,3.8.5.7,1,1,1.6.9.4,0,.8-.4,1.5-.9l1-1.4c.3-.6.5-1.1.4-1.6ZM718.2,987.8c-.2.1-.4.2-.7.3-.1,0-.3,0-.5.1-.2,0-.4,0-.6.1-.2,0-.4,0-.7.1-.2,0-.4,0-.5.1,0,0-.2,0-.6.2-.4,0-1,.2-1.7.4-.5.1-.8.3-.9.4-.4.1-.9.3-1.5.5-.6.2-1.2.4-1.9.7-.8.1-1.2,0-1.4-.7,0-.2,0-.4,0-.6,0-.2,0-.4.3-.5.2-.2.5-.3,1-.5.5-.2,1.2-.4,2-.7.1,0,.2,0,.4,0,.1,0,.3,0,.5-.1.8-.2,2-.6,3.4-1,.4,0,.9-.2,1.3-.3.5,0,1-.2,1.6-.3.5.2.8.5.9.9,0,.3,0,.6-.1.9ZM739.5,985.9c-.1,0-.3.2-.5.2-.2,0-.4.1-.6.2-.3,0-.6.1-.9.2-.3,0-.5.1-.7.2-.1,0-.3,0-.4.1-.1,0-.2,0-.3,0,0,.2,0,.6.1,1,0,.5.1.9.1,1.4,0,.5,0,1,.1,1.5,0,.5,0,.8,0,1-.1.2-.4.3-.8.4-.6.2-.9.1-1.1-.1-.1-.5-.2-1.1-.3-1.8,0-.8-.2-1.7-.3-2.8-.4.2-.8.3-1.1.4-.3.1-.6.2-.8.2-.1,0-.2,0-.4,0-.1,0-.3,0-.6.1-.2,0-.5.1-.9.2-.4,0-.9.2-1.4.3-.2,0-.4,0-.8.1-.3,0-.7,0-1,0-.4,0-.7,0-1,0-.3,0-.6,0-.7-.1,0-.2-.1-.3-.2-.4-.1-.4-.2-.7-.2-.9,0-.2,0-.5,0-.8,0-.4.2-.9.4-1.5.2-.7.3-1.7.5-3.1l1.6-4.8c.1-.2.3-.3.5-.3.6-.2.9,0,1.1.5.1.5-.3,2.2-1.2,5.1l-.7,4.5c.2.3.5.4.9.3.2,0,.4-.1.5-.2.1,0,.2,0,.3-.1,0,0,.2,0,.2-.1,0,0,.2,0,.3-.1.2,0,.5-.1.7-.1.3,0,.6,0,.9-.1.5-.1,1-.3,1.4-.4.4-.1.8-.3,1.2-.4,0-.3-.2-.8-.3-1.2,0-.5-.2-1.1-.3-1.7,0-.2-.2-.4-.2-.5,0-.2-.1-.4-.2-.6-.1-.4-.2-.9-.3-1.3,0-.5-.1-1-.3-1.5,0-.1-.1-.4-.2-.7-.1-.4-.2-.7-.4-1-.1-.4-.2-.7-.3-1,0-.3-.2-.5-.2-.5,0-.4.2-.6.5-.7.2,0,.4,0,.5-.1.2,0,.3,0,.4.1.1,0,.3.3.4.5.1.2.3.6.5,1.1.1.3.3.7.4.9.1.3.2.5.3.7,0,.4.2.8.3,1.2.1.5.2,1,.4,1.7,0,0,0,.2.1.3,0,.1,0,.2.1.4.1.4.2.8.3,1.2,0,.4.1.7.2,1,0,.3.1.7.2,1,.3,0,.8-.1,1.5-.3h.3c.5-.2.9-.3,1.2-.3.3,0,.6.2.7.7,0,.4,0,.7-.1.9ZM754.9,983c.3.1.6.3.6.6,0,.3,0,.6-.2,1-.2.4-.5.6-.7.6-.7,0-1.4-.3-2-.8-.6-.5-1.1-1.1-1.5-1.8,0,.4-.1.8-.2,1.3,0,.5-.2,1-.4,1.5s-.5,1-.9,1.4c-.4.4-.9.7-1.6.9-.4,0-.8.2-1.5.2-.8-.3-1.4-.5-1.8-.7-.4-.2-.8-.4-1-.6-.3-.2-.4-.5-.6-.8-.1-.3-.3-.7-.4-1.2-.1-.4-.2-.9-.2-1.5,0-.6,0-1.2.2-1.8.1-.6.3-1.2.5-1.9.2-.6.5-1.2.9-1.8.8-.6,1.5-1,2-1.3.5-.3.8-.5,1-.5.3-.6.7-1,1.1-1.1.3,0,.5,0,.8.3.3.2.5.6.8,1,.3.4.6.9.8,1.4.3.5.5,1.1.7,1.6,0,0,.2.2.3.3,0,.1.2.3.3.5l.4.8c.3.6.7,1,1.1,1.4.5.3,1,.6,1.6.9ZM749.4,980c0-.2-.2-.5-.5-.9s-.5-.9-.9-1.6c-.2.1-.5.2-.8.3-.3,0-.6.2-.9.4-.3.2-.6.5-.9,1-.3.4-.5,1.1-.7,1.9-.3,1.1-.2,2.1,0,3.1.2.2.4.4.5.6.2.2.3.3.5.4.2.1.4.2.7.3.3,0,.6.2,1,.2.3-.1.5-.3.7-.4.2-.1.4-.3.5-.5.1-.2.2-.5.3-.8,0-.3.2-.7.2-1.2.2-1.4.3-2.3.1-2.8ZM768.3,979.6c-.2,1-.6,1.8-1.4,2.5-.7.7-1.7,1.2-2.9,1.5-.3,0-.7.1-1.4.2-.6,0-1.3,0-2-.2-.7-.2-1.4-.5-2.1-1-.6-.5-1.1-1.3-1.4-2.3-.2-.9-.3-1.8-.3-2.8,0-.9.3-1.9.8-2.8.3-.6.6-1.1.8-1.5.2-.4.5-.8.8-1,.3-.3.6-.5,1-.6.4-.2.9-.3,1.4-.5.6-.2,1.1-.3,1.5-.3.4,0,.7,0,.9,0,.2,0,.4.2.5.3.1.1.2.3.2.5.2.7-.1,1.2-1,1.4,0,0,0,0-.2,0-.1,0-.3,0-.5,0-.2,0-.4,0-.6,0-.2,0-.4,0-.6,0-.6.2-1.2.6-1.8,1.4-.6.8-.9,1.8-1,3.1,0,.4,0,.7,0,1.1,0,.3,0,.5.1.7.2.7.5,1.2,1,1.5.5.3,1,.5,1.5.6.5,0,1,.1,1.5,0,.4,0,.7,0,.8-.1.4,0,.7-.3,1-.6.3-.3.6-.6.8-.9.2-.3.4-.6.5-.8.1-.2.2-.4.2-.4.1-.2.3-.3.5-.4.3,0,.5,0,.8.2.3.2.4.4.5.7v.2Z"/>
  <path class="cls-2" d="M700.2,1018.9c-.3,0-.5,0-.6.1-.1,0-.2,0-.3,0,0,0-.1,0-.2,0s-.2,0-.3,0c-.1,0-.3,0-.5.2-.2,0-.3,0-.5.1-.5.1-1,.2-1.8.1-.2,0-.4,0-.6.2s-.5.1-.7.2c-.2,0-.5,0-.9,0-.4,0-.8,0-1.4.2-.4-.2-.6-.5-.7-.8,0-.2,0-.5,0-.8.5-.8.8-1.4,1-1.9.2-.5.4-.9.5-1.2.1-.4.3-.7.4-1.1.2-.4.4-.8.7-1.4,0,0,.1-.2.2-.5,0-.2.2-.5.2-.7.1-.3.2-.5.3-.8.1-.3.2-.5.3-.7.4-.8.5-1.6.3-2.4-.1-.4-.3-.7-.6-.8-.2-.2-.6-.2-1.2,0-.9.2-1.7.7-2.2,1.3-.5.6-.9,1.3-1.1,2.1,0,.4-.2.7-.2.9,0,.2,0,.4-.1.5,0,.1-.1.2-.2.2,0,0-.2,0-.3,0-.2,0-.5,0-.7,0-.3-.2-.4-.4-.5-.7,0-.2,0-.5,0-.8,0-.4.2-.8.3-1.2.1-.4.3-.8.5-1.1.2-.3.4-.6.5-.7,1-1,2.3-1.8,3.9-2.2.5-.1,1-.2,1.4-.1.4,0,.8.2,1.1.4.3.2.5.5.7.9.2.3.3.7.5,1.1.3,1.1.2,2-.3,2.9-.1.3-.3.5-.4.8-.1.3-.2.6-.3.8,0,.3-.2.5-.2.7,0,.2-.1.4-.2.5,0,0-.1.2-.2.4-.1.2-.2.4-.4.7-.1.3-.2.6-.4,1-.1.3-.2.7-.4,1-.6.8-.9,1.3-.9,1.7.5,0,1.1-.2,1.9-.3.3,0,.6,0,.9,0,.2,0,.4-.1.5-.2,0,0,.2,0,.3,0,.1,0,.2,0,.4,0,.3,0,.6-.2,1-.3.4-.1.8-.2,1.2-.4.2,0,.3,0,.5.2.2.2.3.4.4.7.1.4,0,.7-.1.8-.2.2-.4.3-.6.3ZM714.8,1012.5c.3,0,.5.3.5.5,0,.2,0,.5-.2.8-.2.3-.4.5-.6.5-.6,0-1.2-.3-1.8-.7-.5-.4-1-1-1.3-1.6,0,.3-.1.7-.2,1.2,0,.4-.2.9-.3,1.3s-.4.9-.8,1.2c-.3.4-.8.6-1.4.8-.3,0-.7.1-1.3.2-.7-.2-1.2-.5-1.6-.6-.4-.2-.7-.3-.9-.5-.2-.2-.4-.4-.5-.7-.1-.3-.2-.6-.3-1.1-.1-.4-.2-.8-.2-1.3,0-.5,0-1,.1-1.6,0-.5.2-1.1.4-1.6.2-.5.5-1.1.8-1.6.7-.5,1.3-.9,1.7-1.1s.7-.4.9-.4c.3-.5.6-.8,1-.9.2,0,.4,0,.7.2.2.2.5.5.7.9.3.4.5.8.7,1.2.2.5.4.9.6,1.4,0,0,.2.2.2.3,0,.1.1.2.2.4l.4.7c.3.5.6.9,1,1.2.4.3.9.5,1.4.8ZM710,1009.9c0-.2-.2-.4-.4-.8-.2-.4-.4-.8-.8-1.4-.2.1-.4.2-.7.3-.3,0-.5.2-.8.4-.3.2-.5.5-.8.9-.2.4-.5.9-.6,1.6-.2.9-.2,1.8,0,2.7.2.2.3.4.5.5.1.1.3.3.5.4.2,0,.4.2.6.2.2,0,.5.1.9.2.3-.1.5-.2.6-.4.2-.1.3-.3.4-.5.1-.2.2-.4.2-.7,0-.3.1-.6.2-1.1.2-1.2.2-2,.1-2.5Z"/>
  <path class="cls-2" d="M706.1,983.3c-.3,0-.5.1-.6.1-.1,0-.2,0-.3,0,0,0-.1,0-.2,0,0,0-.2,0-.3,0s-.3,0-.5.2c-.2,0-.3,0-.5.1-.5.1-1,.2-1.8.1-.2,0-.4.1-.6.2-.2,0-.5.1-.7.2-.2,0-.5,0-.9,0-.4,0-.8,0-1.4.2-.4-.2-.6-.5-.7-.8,0-.3,0-.5,0-.8.5-.8.8-1.4,1-1.9.2-.5.4-.9.5-1.2.1-.4.3-.7.4-1.1.2-.4.4-.8.7-1.4,0,0,.1-.2.2-.5,0-.2.2-.5.2-.7.1-.3.2-.6.3-.8.1-.3.2-.5.3-.7.4-.8.5-1.6.3-2.4-.1-.4-.3-.7-.6-.8-.2-.2-.6-.2-1.2,0-.9.2-1.7.7-2.2,1.3-.5.6-.9,1.3-1.1,2.1,0,.4-.2.7-.2.9,0,.2,0,.4-.1.5,0,.1-.1.2-.2.2,0,0-.2,0-.3,0-.2,0-.5,0-.7,0-.3-.1-.4-.4-.5-.7,0-.2,0-.5,0-.8,0-.4.2-.8.3-1.2.1-.4.3-.8.5-1.1.2-.3.4-.6.5-.7,1-1,2.3-1.8,3.9-2.2.5-.1,1-.2,1.4-.1.4,0,.8.2,1.1.4.3.2.5.5.7.9.2.3.3.7.5,1.1.3,1.1.2,2-.3,2.9-.1.3-.3.5-.4.8,0,.3-.2.6-.3.8,0,.3-.2.5-.2.7,0,.2-.1.4-.2.5,0,0-.1.2-.2.4-.1.2-.2.4-.4.7-.1.3-.2.6-.4,1-.1.3-.2.7-.4,1-.6.8-.9,1.3-.9,1.7.5,0,1.1-.2,1.9-.3.3,0,.6,0,.9,0,.2,0,.4-.1.5-.2,0,0,.2,0,.3,0,.1,0,.2,0,.4,0,.3,0,.6-.2,1-.3.4-.1.8-.2,1.2-.3.2,0,.3,0,.5.2.2.2.3.4.4.7.1.4,0,.7-.1.8-.2.2-.4.3-.6.3Z"/>
  <path class="cls-1" d="M672.6,984.1l14,17.8s-5.1-30.8-3.3-31.6c5-2.2,73.2-19.6,73.2-19.6"/>
  <path class="cls-1" d="M618.2,1023.3l157.6-42.2"/>
  <path class="cls-2" d="M600.8,1031.5c0,0,.1.2.2.3,0,.3,0,.5,0,.8-.1.3-.3.4-.5.5-.2,0-.7-.2-1.6-.6-.4-.3-.7-.6-1-.7-.3-.2-.5-.3-.8-.4-.2-.1-.5-.3-.8-.4-.3-.2-.7-.4-1.1-.8l-.9,2.1c-.1.5-.3.9-.4,1.2,0,.3-.2.6-.3.9,0,.3-.1.6-.2.8,0,.3-.2.6-.3.9,0,.2-.3.3-.5.3-.3,0-.5,0-.7,0-.2,0-.4-.2-.4-.4,0,0,0-.2,0-.4,0-.2.1-.4.2-.6,0-.2.1-.4.2-.6,0-.2,0-.4.1-.6.1-.3.2-.7.3-.9.1-.3.2-.6.4-.9.1-.3.3-.7.5-1.1.2-.4.4-1,.6-1.6-.2,0-.4-.2-.6-.2-.2,0-.4-.2-.6-.3-.2-.1-.5-.2-.8-.4-.3-.2-.8-.3-1.4-.5-.4-.2-.8-.3-1-.4-.2-.1-.3-.3-.4-.5-.2-.6,0-1,.6-1.2.2,0,.3,0,.5,0l1.8.7c.1,0,.3.2.6.4.3.1.6.2.9.4.3.1.6.2.8.3.2,0,.4.1.4.1.2-.2.3-.5.5-.7.1-.2.2-.5.3-.6,0-.2.1-.3.2-.4,0-.1,0-.1,0-.1.2-.6.4-1.1.6-1.4.2-.3.4-.5.6-.5.6-.2.9,0,1.1.5,0,.3,0,.7-.3,1.3l-.8,1.8-.5,1c.5.4,1.3.9,2.4,1.6l2.4,1.5ZM612.8,1020c-.2.1-.4.2-.6.2-.3,0-.6.1-.8.2-.2,0-.4,0-.6.1-.2,0-.5,0-.9.2-.4,0-.9.2-1.6.4-.4.1-.6.2-.7.4-.3.1-.7.2-1.1.4-.4.2-.9.3-1.6.5-.7.1-1.1,0-1.2-.6,0-.2,0-.4,0-.5,0-.2.1-.3.3-.5.2-.1.4-.3.8-.4.4-.2.9-.3,1.5-.5,0,0,.2,0,.3,0,.1,0,.2,0,.4-.1.7-.2,1.6-.4,2.7-.8.4,0,.8-.2,1.2-.2.4,0,.9-.1,1.4-.2.4.2.7.4.8.8,0,.2,0,.5-.1.8ZM614.3,1025.2c-.2.1-.4.2-.7.3-.3,0-.6.2-1,.3-.4.1-1,.3-1.6.5-.7.2-1.5.4-2.5.7-1,.3-1.7.6-2.2.7-.4.1-.7,0-.9,0-.2-.2-.3-.4-.4-.6,0-.2,0-.3,0-.5,0-.1.1-.2.3-.3.2-.1.5-.3.9-.4.4-.2,1-.3,1.7-.5,0,0,.2,0,.5-.1.4,0,.9-.2,1.5-.4.5-.1.7-.3.8-.4l2.9-.9c.6,0,1,0,1.1.5,0,.4,0,.7-.4,1.2Z"/>
  <path class="cls-2" d="M1427.7,153.6c-1.6-.7-3.2-1.3-4.7-2.1.9-2.7,1.5-5.6,1.6-8.2,0-.9-1.2-1-1.5-.2-.6,2.2-1.1,4.4-1.8,6.5-.1.3-.2.6-.3.9-2-1.1-3.9-2.3-5.8-3.9-.8-.7-2,.4-1.2,1.2,1.8,1.7,3.8,3.4,6.1,4.8-.5,1.1-1,2.2-1.4,3.3-.4,1.1,1.3,1.8,1.9.8.6-.9,1.1-1.9,1.5-2.9,1.6.8,3.2,1.4,4.8,1.7,1,.2,1.8-1.3.7-1.8Z"/>
  <path class="cls-2" d="M1433.4,171.9c-.2-.6-.5-1.2-.8-1.8,1.3-.3,2.5-.9,3.5-1.8.9-.8-.3-2.3-1.3-1.6-1,.7-2.1,1.2-3.2,1.5-.8-1.4-1.6-2.9-2.4-4.3-.5-1-2-.1-1.5.9.6,1.2,1.1,2.4,1.7,3.6-.8,0-1.7-.2-2.5-.5-.9-.4-1.6,1.2-.7,1.6,1.3.6,2.7.9,4.1.9.4.8.8,1.6,1.3,2.3.5.9,2.2.3,1.8-.7Z"/>
  <path class="cls-2" d="M1429,195.1c5.5-5.1,12-8.6,18.5-12.2,1.1-.6.4-2.6-.9-2.1-2.6.9-3.7,1.4-5.4-1.1-1.4-.9-1.7-1.9-.9-3,.5-1,.8-2,.9-3.1.5.9,1.8.3,1.6-.7,0,0,0-.1,0-.2,0-.4-.5-.7-.9-.7-2.9.2-4.8,5.7-4.5,8.1.3,2.3,1.8,3.3,3.7,3.6-4.9,2.8-9.6,5.8-13.8,9.7-1.1,1,.6,2.7,1.7,1.7Z"/>
  <path class="cls-2" d="M1448.3,202.2c0-.4,0-.7,0-1.1,0-.7-.6-1-1.2-.9-1-1.6-1.8-3.4-2.5-5.2-.3-.8-1.6-.6-1.4.4.5,2.6,1.8,5,3.2,7.3.5.9,1.8.5,1.9-.5Z"/>
  <path class="cls-2" d="M1453.5,200.3c-1.7-3.3-3.7-6.5-5.7-9.7-.6-.9-1.9-.1-1.4.8,1.7,3.3,3.5,6.7,5.5,9.8.6,1,2.1.1,1.6-.9Z"/>
  <path class="cls-2" d="M1460.1,223.5c.7-.9-.2-2.4-1.3-1.7-.5-.8-.4-1.5.2-2.2.4-.7,1-1.3,1.7-1.7,1-.7.5-2.5-.9-2.1-1.3.3-2.6.5-4,.3-1.4-.2-5.9-2.5-2.4-4.2,1.4-.7,3.4-.3,4.8.3.4.2,3.7,3,3.2,3.2-.7.3-.2,1.6.6,1.3,2.6-1-.1-4.3-1.3-5.3-2.3-1.9-5.8-2.6-8.6-1.4-2.7,1.2-2.9,4-1,6.1,1.5,1.7,3.7,2.3,5.8,2.3-.8,1.1-1.2,2.5-1,3.8.4,1.9,2.8,2.9,4.1,1.3Z"/>
  <path class="cls-2" d="M1469.8,222.4c-.7-1.2-1.4-2.4-2-3.5,2.8.5,6,.4,7.2-2.2,1.2-2.9-1.6-5.7-4.4-4.6-.9.3-.6,1.8.4,1.5,1.2-.3,2.7.5,2.3,2-.4,1.2-1.7,1.3-2.7,1.4-1.6,0-3.2-.4-4.7-1-1-.4-1.7.9-1.3,1.7,1,2,2,4.1,3.3,6,.8,1.2,2.8.1,2-1.2Z"/>
  <path class="cls-2" d="M1476,242.6c1.8-2.1.8-4.9-1.3-6.3-1.3-.9-2.9-1.3-4.5-1.4,1.8-1,3.5-2,5.3-3,2.6-1.5,5-2.7,6.8-5.1.7-.9-.8-2-1.5-1.2-2.3,2.6-5.6,4-8.6,5.6l-9,5s0,0-.1,0c-.9-.6-2.3,0-1.8,1.2,2,4.9,10.2,10.3,14.8,5.1ZM1471.8,241.9c-2.9.7-5.9-1.2-7.5-3.7,1.6-.6,3.1-1,4.9-1,.8,0,1.7.2,2.5.3,2.2,3,2.3,4.4.1,4.4Z"/>
  <path class="cls-2" d="M445.1,188.8c-11.4-8.6-22.6-17.5-34.3-25.7-.2-.2-.5-.1-.7,0-.1,0-.2-.1-.4-.1-7.1.8-14.2,2.1-21.3,3-.6,0-.5.9-.1,1.1-1.4.6-2,2.4-2.7,3.7-2.1,3.7-4.1,7.4-6.2,11-4.1,7.4-8.3,14.7-12.2,22.2,0,0,0,.2,0,.2-.2.2-.3.5,0,.7,7.3,4.4,14.9,8.3,22.3,12.5,3.5,2,7,3.9,10.5,6,1,.6,2.2,2,3.5,2.4-.3.3-.1.8.3.8,0,0,0,0,0,0,.3.4.9.5,1.2,0,0,0,0,0,0,0,4.8-.4,9.6-1.6,14.2-2.4,4.6-.8,6.6-1.3,9.1-5.3,5.7-9.1,10.7-18.6,15.1-28.4,0-.1,0-.2,0-.4.4,0,.8,0,1.1,0,.9,0,1-1,.4-1.5ZM404.6,224.2c-.1,0-.3,0-.4,0h0c-1-.8-2.5-1.7-2-1.3-1.7-1-3.5-2-5.2-3-3.1-1.7-6.1-3.5-9.2-5.2-6.4-3.5-12.8-7.1-19.5-10.2,3.8-6.3,7.4-12.7,11-19.1,1.6-2.8,3.1-5.5,4.7-8.3,1-1.8,2-3.8,3.1-5.5.3-.5.5-.9.8-1.4.8-1.8,1.8-2,2.9-.8,3,.9,6,3.3,8.8,4.9,2.9,1.6,5.8,3.2,8.8,4.9,6,3.3,12,6.6,18,10-4.7,4.5-7.9,10.5-11.3,16.1-1.1,1.9-2.2,3.8-3.3,5.7-.7-.2-1.3-.5-1.9-.8-.5-.3-1,.5-.5.8.6.4,1.2.7,1.8,1-2.3,4-4.5,8.1-6.5,12.3ZM429.7,213.8c-1,1.8-2,4.1-3.4,5.6-2.4,2.7-4.9,2.9-8.2,3.5-4.1.8-8.3,1.3-12.3,2.3,2.3-4.2,4.5-8.5,6.8-12.7.1,0,.3,0,.4.1.7.2,1-.8.3-1.1,0,0-.1,0-.1,0,.8-1.4,1.5-2.8,2.4-4.1,3.6-6.1,7.2-13,12.5-17.8,0,0,0,0,0-.1,4.6.4,9.2.5,13.8.7-3.7,8.1-7.7,16-12.3,23.7ZM427.7,187.9c-.1,0-.3,0-.4,0-7-3.9-14-7.8-21-11.6-3.6-2-7.2-4-10.8-6-1.2-.7-3.5-2.6-5.4-3.2,6.5-.3,13.5-1.1,19.7-2.8.1,0,.2,0,.3-.2,10.4,8.5,21.3,16.3,32.1,24.3-4.8-.3-9.7-.6-14.5-.6Z"/>
  <path class="cls-2" d="M374.2,202.6c-1.6.2-3.2.7-4.8,1.1-.6.2-.4,1.1.3,1,1.6-.3,3.2-.5,4.8-1,.7-.2.4-1.2-.3-1.1Z"/>
  <path class="cls-2" d="M380.9,201.4c-1.3.1-2.6.5-3.8.7-.7.1-.4,1.1.3,1,1.2-.2,2.5-.3,3.7-.6s.5-1.2-.2-1.1Z"/>
  <path class="cls-2" d="M388.8,200.5c-1.5.2-2.9.5-4.3.7-.5,0-.4,1,.1.9,1.5-.1,2.9-.2,4.4-.5.7,0,.5-1.3-.2-1.2Z"/>
  <path class="cls-2" d="M408.5,165.9c-.3.8-.8,1.6-1.2,2.4-.3.6.5,1.3.9.7.7-.8,1.1-1.8,1.3-2.8.2-.7-.8-.9-1.1-.3Z"/>
  <path class="cls-2" d="M406.1,171.5c-.6.9-1.2,1.9-1.6,2.9-.2.5.7.9.9.4.5-1,.8-2.1,1.1-3.1,0-.3-.3-.4-.4-.2Z"/>
  <path class="cls-2" d="M402.8,177c-.6.9-1.2,1.7-1.5,2.7-.2.6.7.9,1,.4.5-.9.9-1.9,1.2-2.8.1-.4-.5-.6-.7-.3Z"/>
  <path class="cls-2" d="M399.7,183.5c-1,1-1.7,2.2-2.4,3.4-.4.7.6,1.2,1,.6.8-1.1,1.5-2.3,2-3.6.1-.3-.4-.6-.6-.3Z"/>
  <path class="cls-2" d="M395.1,190.8c-.2.6-.4,1.2-.7,1.7-.2.5-.5,1-.8,1.5-.3.7.6,1.2,1,.6.7-1,1.1-2.5,1.2-3.7,0-.5-.6-.4-.7,0Z"/>
  <path class="cls-2" d="M391.8,197c-.6.8-1.3,1.8-1.4,2.8,0,.6.8.7,1,.1.1-.4.1-.9.3-1.3.1-.5.3-.9.6-1.3.2-.3-.3-.6-.5-.4Z"/>
  <path class="cls-2" d="M398.1,204.4c-1.4-.8-3-1.4-4.5-1.9-.5-.2-.8.5-.3.8,1.4.8,2.9,1.6,4.4,2.1.6.2,1-.7.4-1Z"/>
  <path class="cls-2" d="M406.2,208.2c-1.2-1-2.7-1.6-4.2-1.9-.6-.1-.8.7-.2.9,1.4.5,2.6,1.1,3.8,1.9.5.3,1.2-.5.7-.9Z"/>
  <path class="cls-2" d="M420.7,214.6c-.8-.3-1.6-.5-2.4-.8-.6-.2-.9.8-.3,1,.8.3,1.6.6,2.4.9.7.2,1-.8.3-1.1Z"/>
  <path class="cls-2" d="M425.9,217.5c-.8,0-1.7-.4-2.5-.6-.6-.2-.8.7-.2.9.8.3,1.7.5,2.5.8.8.4,1.3-1,.3-1.1Z"/>
  <path class="cls-1" d="M1106.8,165.2c18.1,4.9,36.7-5.9,41.6-24,4.8-18.1-5.9-36.7-24-41.6-18.1-4.9-36.7,5.9-41.6,24-4.8,18.1,5.9,36.7,24,41.6Z"/>
  <path class="cls-1" d="M1148.8,176.5c18.1,4.9,36.7-5.9,41.6-24,4.8-18.1-5.9-36.7-24-41.6-18.1-4.9-36.7,5.9-41.6,24-4.9,18.1,5.9,36.7,24,41.6Z"/>
  <path class="cls-2" d="M1116.3,142.5c-.2.3-.6.4-1.1.2-.5-.1-.8-.3-1-.6l-.3-4.1v-1.9c0-.5,0-.8-.1-1.2,0-.3-.2-.6-.3-.8l-2.8-.6c-1.3-.3-2.6-.5-3.8-.5-1.2,0-2,0-2.5.2-.3.6-.7,1.3-1.1,2.1-.4.7-.9,1.5-1.4,2.4-.2.3-.7.4-1.3.2-.6-.2-.9-.5-.8-.9,0-.2.1-.4.3-.7.2-.3.4-.7.6-1.1.2-.4.4-.8.6-1.2.2-.4.5-.8.7-1.2,0-.1,0-.2,0-.3,0-.1,0-.2,0-.3,0-.2.2-.6.4-1,.2-.4.4-.9.7-1.3.2-.4.5-.8.6-1.2.2-.3.3-.6.3-.6l2.2-3.1c.2-.4.4-.8.8-1.3.4-.5.8-1.1,1.2-1.6.4-.5.8-1,1.2-1.5.4-.5.7-.8.8-1.1.3-.6.9-.7,1.6-.5.6.2.9.5,1,.9,0,0,0,0,.1.4.1.3.2.8.3,1.3.2.5.3,1.1.5,1.7.2.6.3,1.2.5,1.8.1.6.2,1.1.3,1.5,0,.4.1.7,0,.8,0,.1,0,.4.2.8.1.4.2.9.3,1.4.1.5.2,1,.3,1.4,0,.4.2.7.3.8.2.4.3.9.4,1.5,0,.6.1,1.2.1,1.8,0,.6,0,1.1,0,1.7,0,.5,0,.8.1,1,0,.2,0,.4,0,.8,0,.4,0,.8,0,1.2,0,.4,0,.8,0,1.2,0,.4,0,.6,0,.8,0,0,0,.2-.2.4ZM1113,131.7l-.2-2.7c0-.8-.2-1.5-.5-2.1,0-.6-.2-1.2-.4-2-.2-.7-.3-1.6-.6-2.4-.9.8-1.9,2.3-3,4.2-.9,1-1.7,2.3-2.6,3.9,0,0,.2,0,.4,0,.3,0,.5,0,.8,0,.3,0,.6,0,.8,0,.3,0,.5,0,.6,0,.2,0,.3.1.5.2.2,0,.5,0,.9.1.3,0,.7.1,1,.2.4,0,.8.1,1.1.2.4,0,.7,0,1.1,0Z"/>
  <path class="cls-1" d="M1128.9,125.6l18.4-3"/>
  <path class="cls-1" d="M1125.7,132.4l23.4-3.7"/>
  <path class="cls-1" d="M1124.4,139.2l24.8-4.2"/>
  <path class="cls-1" d="M1124,145.3l24.2-4"/>
  <path class="cls-1" d="M1125.2,151.6l20.4-3.3"/>
  <path class="cls-1" d="M1220.4,118.2l-146.4-39.2-21.1,78.9,146.4,39.2,21.1-78.9Z"/>
  <path class="cls-2" d="M1622.9,824.9c-.6-1.5-1.2-2.9-1.9-4.3-.1-.3-.3-.6-.4-.8-.5-1-2-.1-1.5.9.2.4.4.9.6,1.4.1.3.2.6.3,1,.1.4.2.8.3,1.2-3.6-2-7.1-3.9-10.7-5.9,7.9-11.8,15.6-24.5,21.1-37.6.1-.3,0-.5-.2-.6,3.8-2.2,7.5-4.8,10.9-7.3.8-.6,0-1.8-.7-1.3-5.2,3.9-11.6,8.9-18,10.5-2,.5-3.5.5-4.7.1,0,0,0,0-.2,0-1.2-.4-2-1.3-2.6-2.4,0-.2,0-.4-.2-.5-1.8-4.1-.7-11-1.2-14.8-1.3-10.2-11.7-9.4-18.2-4.3-5.8,4.6-10.1,10.6-15.2,15.9-1.1,1.2-2.3,2.6-3.7,3.6-2.2,2.6-4.8,1.8-7.7-2.5,0-.4,0-.9,0-1.3-.4-2.3.3-4.5-1.2-6.6-4.1-5.8-11.4-1.8-17,2.8,3.9-6.5,7.8-13,11.5-19.6,6-10.5,12.6-21.1,17.5-32.3,0,.3.2.6.2.8l.8,2.5c.3,1.1,2.1.6,1.7-.5-.4-1.2-.7-2.3-1.1-3.5-.2-.7-.5-1.5-1.3-1.7-.8-.2-1.9.5-2.6.7-1,.4-2.1.7-2.9,1.4-.4.4,0,1,.4,1,1.3,0,2.4-.7,3.6-1.1-6.4,10.3-11.8,21.3-17.8,31.7-4.9,8.4-9.9,16.8-14.9,25.1-.5.6-1,1.1-1.4,1.5-.2.2-.1.5,0,.7-.3.5-.6.9-.9,1.4-2.3-1.4-4.7-2.7-7.1-4.1-.6-.4-1.1.6-.6,1,2.2,1.5,4.5,3,6.8,4.5-.4.7-.9,1.4-1.3,2.1-.6,1,.9,1.9,1.5.9.4-.7.8-1.3,1.2-2,16.7,10.8,34,20.8,51.4,30.5-.1.6.7,1.1,1.1.6,6.2,3.4,12.4,6.9,18.6,10.2-.3,0-.5.2-.6.6-.5,2.7,2.9,2.4,5.3,2,0,0,0,0,0,0,.4.2.8,0,1.1-.2.3,0,.5,0,.7,0,.5,0,1.1-.5.9-1.1ZM1545.3,781c1.2-1.9,2.4-3.8,3.5-5.7,1.3-1.2,2.8-2.4,4.5-3.5-2,3.5-4,7-5.7,10.6-.8-.4-1.5-.9-2.3-1.3ZM1549.9,783.6c-.5-.3-1-.6-1.6-.9,2.2-3.8,4.2-7.9,6.2-11.9,1.4-.9,2.7-1.7,4.1-2.2-3.1,4.9-6,9.9-8.7,15ZM1552.1,785c-.4-.3-.9-.5-1.3-.8,3-5.3,6-10.6,8.9-15.9,1-.3,2-.5,2.9-.5-3.5,5.8-6.8,11.6-10.4,17.2ZM1553.1,785.5c3.8-5.6,7.4-11.6,10.2-17.8.8.1,1.6.4,2.2.9-3.1,6.1-6.4,12.1-9.5,18.2,0,.1,0,.2,0,.4-1-.6-1.9-1.1-2.9-1.7ZM1556.7,787.6c.1,0,.2-.1.3-.2,3.7-5.5,6.7-11.9,9.1-18.1.7.8,1.2,1.9,1.6,3.4-.1-.1-.4-.1-.5,0-3,5.3-5.8,10.7-8.1,16.3-.8-.5-1.6-.9-2.4-1.4ZM1561.3,790.4l-1.3-.8c2.6-5.5,5.1-11,7.8-16.5h0c.3,1.7,0,4,.4,6.1-2.7,3.3-5.4,7.2-6.9,11.2ZM1566.3,788.8c-.5.8-1.7,2.1-2,3.3-.7-.4-1.4-.8-2.1-1.3,2.2-3.5,4.1-7.2,6.3-10.7.3.9.8,1.8,1.7,2.4-1.3,2.1-2.6,4.2-3.8,6.3ZM1565.3,792.7c0-.1-.2-.2-.3-.3.6-.8,1.5-2,1.7-2.3.6-1,1.2-2.1,1.7-3.1.8-1.4,1.6-2.8,2.3-4.2.1,0,.2.1.3.2.6.2,1.2.3,1.8.2-2.1,3.4-4.1,6.9-5.9,10.5-.6-.3-1.1-.7-1.7-1ZM1572.1,789.6c-.7,1.2-2.8,3.5-3.1,5.2-.3-.2-.7-.4-1-.6,2.1-3.7,4.1-7.4,5.9-11.3,1.1-.4,2.2-1.1,3.2-2-1.8,2.8-3.4,5.8-5.1,8.6ZM1570.5,795.7c0-.1,0-.2,0-.4,0,0,0,0,0-.1.3-.2.5-.6.6-1.2.5-.8,1-1.7,1.4-2.5.7-1.3,1.5-2.5,2.2-3.8,1.7-3,3.4-5.9,4.9-9,0,0,0-.1,0-.2.6-.7,1.2-1.3,1.6-1.8.8-.8,1.6-1.7,2.4-2.5-3.9,7.4-7.7,15-11.1,22.6-.7-.4-1.3-.8-2-1.2ZM1573,797.2c4.8-8.4,9-17.1,13.1-25.8,2.3-2.6,4.5-5.1,7-7.4-.5,1-.9,1.9-1.4,2.8-2.1,3.6-4.1,7.3-6,11-3.6,6.8-7.5,13.6-10.2,20.8-.8-.5-1.6-.9-2.4-1.4ZM1575.9,798.9c3.6-6.1,6.6-12.7,9.9-18.9,1.7-3.2,3.4-6.3,5.2-9.4,1.4-2.5,3.2-7.6,5.7-8.9.4-.2.4-.6.2-.8,1.3-.9,2.8-1.9,4.3-2.5-7.7,13.9-15.7,27.9-22.2,42.4-1-.6-2.1-1.2-3.1-1.8ZM1579.4,800.9c8.3-13.8,15.6-28.4,23.1-42.6,0-.2,0-.4,0-.5,1.3-.4,2.6-.5,3.8-.4-8.5,14.7-16.7,29.9-23.5,45.5-1.1-.7-2.3-1.3-3.4-2ZM1583.8,803.5c8-15.2,15.4-30.7,23.3-45.9,1.1.3,2.2.8,3.1,1.7.1.1.2.2.3.3-.2,0-.5,0-.6.3-6.4,15.8-17.7,29-24.1,44.8-.7-.4-1.4-.8-2-1.2ZM1612,774.5c-7,11-13.6,22.5-19.8,33.9-.6-.4-1.3-.7-1.9-1.1,8-12.5,15.3-25.8,22.2-38.9.2-.5-.4-.9-.7-.4-7.9,12.6-15.8,25.5-22.6,38.7-.8-.5-1.6-.9-2.4-1.4,7.5-15.2,18.4-29,24-45.1,0,0,0-.1,0-.2,2.2,2.6,1.9,6.5,1.7,9.8,0,1.5-.2,3-.1,4.6-.1,0-.3,0-.4.2ZM1593.3,809c6.7-11,13.3-22.3,19.2-33.8.1,1.8.5,3.6,1.5,5.1-6,10-11.5,20.4-17.1,30.7-1.2-.7-2.3-1.3-3.5-2ZM1597.9,811.7c5.6-10.1,11.4-20.2,16.6-30.5.2.2.3.4.5.6.6.6,1.3,1.1,2,1.4-5.3,10.1-10.6,20.2-15.9,30.3-1.1-.6-2.1-1.2-3.2-1.8ZM1602.2,814.1c5.8-9.8,10.9-20.2,15.5-30.7,1.5.5,3.2.5,4.9,0-3.4,5.5-6.6,11.2-9.8,16.8-2.8,4.8-6.4,9.8-8.4,15-.7-.4-1.4-.8-2.1-1.2ZM1623.8,783.2c.5-.2,1-.3,1.5-.6,1.6-.6,3.1-1.4,4.6-2.2-7.3,12.3-14.1,25-21.7,37.2-.9-.5-1.8-1-2.7-1.5,5.3-11.3,12.5-21.8,18.3-32.8Z"/>
</svg>